<?xml version="1.0" standalone="no"?>
<!DOCTYPE svg PUBLIC "-//W3C//DTD SVG 1.1//EN" "http://www.w3.org/Graphics/SVG/1.1/DTD/svg11.dtd" >
<svg xmlns="http://www.w3.org/2000/svg" xmlns:xlink="http://www.w3.org/1999/xlink" version="1.1">
<metadata>
Created by FontForge 20170910 at Wed Nov 30 12:18:42 2016
 By Jimmy Wärting
Copyright (c) 2013 by Studio Monocromo. All rights reserved.
</metadata>
<defs>
<font id="VintageStraps-Regular" horiz-adv-x="366" >
  <font-face 
    font-family="Vintage Straps"
    font-weight="400"
    font-stretch="condensed"
    units-per-em="1000"
    panose-1="2 0 5 6 0 0 0 2 0 3"
    ascent="750"
    descent="-250"
    x-height="482"
    cap-height="712"
    bbox="-92 -246 757 929"
    underline-thickness="50"
    underline-position="-100"
    unicode-range="U+000D-FB02"
  />
<missing-glyph horiz-adv-x="271" 
 />
    <glyph glyph-name=".notdef" horiz-adv-x="271" 
 />
    <glyph glyph-name=".null" horiz-adv-x="0" 
 />
    <glyph glyph-name=".null" horiz-adv-x="0" 
 />
    <glyph glyph-name="nonmarkingreturn" unicode="&#xd;" horiz-adv-x="271" 
 />
    <glyph glyph-name="space" unicode=" " horiz-adv-x="271" 
 />
    <glyph glyph-name="H" unicode="H" 
d="M320 0h-48v116h-183v-116h-48v712h48v-550h183v550h48v-712z" />
    <glyph glyph-name="I" unicode="I" horiz-adv-x="129" 
d="M87 0h-47v712h47v-712z" />
    <glyph glyph-name="L" unicode="L" horiz-adv-x="352" 
d="M306 0h-265v712h48v-666h217v-46z" />
    <glyph glyph-name="M" unicode="M" horiz-adv-x="604" 
d="M553 0h-48v568q-51 -140 -104 -285.5t-103 -282.5l-207 569v-569h-48v712h45l210 -579l210 579h45v-712z" />
    <glyph glyph-name="N" unicode="N" 
d="M275 0l-186 557v-557h-48v712h45l186 -555v555h48v-712h-45z" />
    <glyph glyph-name="O" unicode="O" 
d="M180 -14q-28 0 -53.5 11t-44.5 30t-30 44.5t-11 53.5v462q0 28 11 53.5t30 44.5t44.5 30t53.5 11t53.5 -11t45 -30t30.5 -44.5t11 -53.5v-462q0 -28 -11 -53.5t-30.5 -44.5t-45 -30t-53.5 -11zM180 679q-19 0 -35.5 -7t-29 -19.5t-19.5 -29.5t-7 -36v-462q0 -19 7 -36
t19.5 -29.5t29 -19.5t35.5 -7t36 7t29.5 19.5t19.5 29.5t7 36v462q0 19 -7 36t-19.5 29.5t-29.5 19.5t-36 7z" />
    <glyph glyph-name="P" unicode="P" 
d="M89 0h-48v712h139q28 0 53.5 -11t45 -30t30.5 -44.5t11 -53.5v-318q0 -29 -11 -54.5t-30.5 -44.5t-45 -29.5t-53.5 -10.5h-91v-116zM89 162h91q19 0 36 7.5t29.5 20t19.5 29.5t7 36v319q0 19 -7 35.5t-19.5 29t-29.5 20t-36 7.5h-91v-504z" />
    <glyph glyph-name="Q" unicode="Q" 
d="M240 -73l-60 59q-28 0 -53.5 11t-44.5 29.5t-30 44t-11 54.5v462q0 29 11 54.5t30 44t44.5 29.5t53.5 11q29 0 54.5 -11t44.5 -29.5t30 -44t11 -54.5v-462q0 -44 -23.5 -78t-59.5 -50l37 -37zM180 679q-38 0 -64.5 -27t-26.5 -65v-462q0 -38 26.5 -65t64.5 -27
q19 0 36 7.5t29.5 20t19.5 29t7 35.5v462q0 19 -7 35.5t-19.5 29t-29.5 20t-36 7.5z" />
    <glyph glyph-name="R" unicode="R" 
d="M273 0l-103 116h-81v-116h-47v712h139q28 0 53.5 -11t44.5 -30t30 -44.5t11 -53.5v-333q0 -45 -26 -75.5t-67 -42.5l109 -122h-63zM89 162h92q38 0 64.5 20.5t26.5 57.5v334q0 38 -26.5 65t-64.5 27h-92v-504z" />
    <glyph glyph-name="S" unicode="S" horiz-adv-x="360" 
d="M55 0v46h177q14 0 24.5 10t11.5 25q-1 14 -11.5 24.5t-24.5 10.5h-54q-28 0 -53 10.5t-43.5 28.5t-29.5 42.5t-11 53.5v338q0 28 10.5 53t29.5 44t43.5 29.5t53.5 10.5q28 0 53 -11.5t43.5 -31.5t29 -46.5t10.5 -56.5h-46q0 21 -7 39t-19.5 31.5t-29 21t-34.5 7.5
q-38 0 -64 -26t-26 -64v-338q0 -37 26 -63t64 -26h54q33 0 57.5 -23.5t24.5 -57.5q0 -33 -24.5 -57t-57.5 -24h-177z" />
    <glyph glyph-name="T" unicode="T" horiz-adv-x="337" 
d="M291 666h-101v-666h-48v666h-101v46h250v-46z" />
    <glyph glyph-name="U" unicode="U" 
d="M180 -14q-28 0 -53.5 11t-44.5 29.5t-30 44t-11 54.5v587h48v-587q0 -38 26.5 -65t64.5 -27q19 0 36 7.5t29.5 20t19.5 29t7 35.5v587h48v-587q0 -29 -11 -54.5t-30.5 -44t-45 -29.5t-53.5 -11z" />
    <glyph glyph-name="V" unicode="V" horiz-adv-x="367" 
d="M203 0h-45l-119 712h49l92 -555q24 142 47 278t46 277h50z" />
    <glyph glyph-name="Z" unicode="Z" horiz-adv-x="377" 
d="M311 0h-272l229 666h-207v46h273l-231 -666h208v-46z" />
    <glyph glyph-name="K" unicode="K" 
d="M267 0l-101 101h-77v-101h-47v712h47v-563h91q38 0 65 26.5t27 64.5v472h48v-472q0 -46 -26.5 -82.5t-69.5 -50.5l109 -107h-66z" />
    <glyph glyph-name="W" unicode="W" horiz-adv-x="604" 
d="M436 0h-45l-93 560l-94 -560h-44l-119 712h49l92 -558l94 558h44l94 -557l92 557h49z" />
    <glyph glyph-name="X" unicode="X" horiz-adv-x="387" 
d="M92 0h-53l119 356q-29 86 -59.5 178t-59.5 178h53l99 -303l98 303h54l-119 -356l119 -356h-54l-98 303z" />
    <glyph glyph-name="Y" unicode="Y" 
d="M204 122v-122h-47v122l-118 590h48l93 -464q11 55 23.5 114t24.5 118.5t23.5 118.5t22.5 113h48z" />
    <glyph glyph-name="J" unicode="J" 
d="M320 712v-587q0 -29 -11 -54.5t-30.5 -44t-45 -29.5t-53.5 -11t-53.5 11.5t-44.5 32t-30 47.5t-11 58h48q0 -21 7 -39.5t19.5 -32.5t29 -22t35.5 -8t36 7.5t29.5 20t19.5 29t7 35.5v587h48z" />
    <glyph glyph-name="o" unicode="o" 
d="M179 -13q-28 0 -53 11t-43.5 29.5t-29.5 43.5t-11 53v234q0 28 11 53t29.5 43.5t43.5 29.5t53 11t53 -11t44 -29.5t30 -43.5t11 -53v-234q0 -28 -11 -53t-30 -43.5t-44 -29.5t-53 -11zM179 449q-38 0 -64 -26t-26 -64v-236q0 -38 26 -64t64 -26t64.5 26t26.5 64v236
q0 38 -26.5 64t-64.5 26z" />
    <glyph glyph-name="i" unicode="i" horiz-adv-x="129" 
d="M40 0v482h47v-482h-47zM32 670q0 13 9.5 23t21.5 10q13 0 22.5 -10t9.5 -23q0 -11 -9.5 -21t-22.5 -10q-12 0 -21.5 10t-9.5 21z" />
    <glyph glyph-name="a" unicode="a" horiz-adv-x="370" 
d="M89 495h92q29 0 54.5 -11t44.5 -30t30 -44.5t11 -53.5v-356h-48v21q-18 -16 -42 -25t-50 -9q-29 0 -54.5 10.5t-44 29.5t-29.5 44t-11 54v81q0 29 11 54.5t29.5 44.5t44 30t54.5 11q26 0 50 -10t42 -26v55q0 16 -8 31t-21 27t-29.5 19t-33.5 7h-92v46zM181 300
q-19 0 -36 -7.5t-29.5 -20.5t-19.5 -30t-7 -36v-81q0 -19 7 -36t19.5 -29.5t29.5 -19.5t36 -7t36 7t29.5 19.5t19.5 29.5t7 36v81q0 19 -7 36t-19.5 30t-29.5 20.5t-36 7.5z" />
    <glyph glyph-name="c" unicode="c" horiz-adv-x="369" 
d="M180 -13q-29 0 -54 10.5t-43.5 29.5t-29.5 44t-11 54v231q0 29 11 54.5t29.5 44t43.5 29.5t54 11t54.5 -11.5t44.5 -31.5t30 -47t11 -58h-47q0 21 -7.5 39.5t-20 32.5t-29.5 22t-36 8t-35.5 -7.5t-29 -20t-19.5 -29.5t-7 -36v-231q0 -19 7 -36t19.5 -29.5t29 -19.5
t35.5 -7t36 8t29.5 21.5t20 31.5t7.5 39h47q0 -30 -11 -57t-30 -46.5t-44.5 -31t-54.5 -11.5z" />
    <glyph glyph-name="b" unicode="b" horiz-adv-x="370" 
d="M181 -13q-29 0 -54 10.5t-44 29.5t-30 44t-11 54v578h47v-243q19 16 42.5 25.5t49.5 9.5q29 0 54.5 -11t44.5 -29.5t30 -44t11 -54.5v-231q0 -29 -11 -54t-30 -44t-44.5 -29.5t-54.5 -10.5zM181 449q-19 0 -36 -7.5t-29.5 -20t-19.5 -29.5t-7 -36v-231q0 -19 7 -36
t19.5 -29.5t29.5 -19.5t36 -7t36 7t29.5 19.5t19.5 29.5t7 36v231q0 19 -7 36t-19.5 29.5t-29.5 20t-36 7.5z" />
    <glyph glyph-name="d" unicode="d" horiz-adv-x="370" 
d="M42 356q0 29 11 54.5t30 44t44 29.5t54 11q26 0 50 -9t42 -25v251h48v-587q0 -29 -11 -54t-30 -44t-44.5 -29.5t-54.5 -10.5t-54 10.5t-44 29.5t-30 44t-11 54v231zM273 359q-2 38 -28.5 64t-63.5 26q-19 0 -36 -7.5t-29.5 -20t-19.5 -29.5t-7 -36v-231q0 -19 7 -36
t19.5 -29.5t29.5 -19.5t36 -7t36 7t29.5 19.5t19.5 29.5t7 36v234z" />
    <glyph glyph-name="e" unicode="e" horiz-adv-x="370" 
d="M306 0h-125q-29 0 -54.5 11t-44 30t-29.5 44t-11 54v217q0 29 11 54.5t29.5 44t44 29.5t54.5 11q28 0 53.5 -11t45 -29.5t30.5 -44t11 -54.5v-242h-229q8 -29 32.5 -49t56.5 -20h125v-45zM89 160h184v196q0 19 -7 36t-19.5 29.5t-29.5 20t-36 7.5t-36 -7.5t-29.5 -20
t-19.5 -29.5t-7 -36v-196z" />
    <glyph glyph-name="f" unicode="f" horiz-adv-x="239" 
d="M189 114h-100v-114h-47v589q0 29 11 54t29.5 43.5t43.5 29t53 10.5v-46q-38 0 -64 -26.5t-26 -64.5v-429h100v-46z" />
    <glyph glyph-name="g" unicode="g" horiz-adv-x="370" 
d="M321 482v-357q0 -29 -11 -54t-30.5 -44t-45 -30t-53.5 -11h-63q-12 0 -20.5 -9t-8.5 -20q0 -13 8.5 -21.5t20.5 -8.5h63q30 0 55.5 -6.5t44 -17.5t29.5 -27t11 -34q0 -37 -37 -62.5t-103 -25.5q-69 0 -104 25.5t-35 62.5q0 30 30 54q-30 21 -30 61q0 23 11 41t31 27
q-18 19 -30 45t-12 55v232q0 29 11 54t30 44t44 29.5t54 10.5q26 0 50 -9t42 -25v21h48zM273 -158q0 9 -8.5 16t-22 12t-30.5 7.5t-35 2.5q-34 0 -61 -9.5t-27 -28.5q0 -10 7.5 -17.5t20.5 -13t29 -8t33 -2.5q18 0 34.5 2.5t30 8t21.5 13t8 17.5zM273 357q0 19 -7 35.5
t-19.5 29t-29.5 19.5t-36 7t-36 -7t-29.5 -19.5t-19.5 -29t-7 -35.5v-232q0 -19 7 -36t19.5 -29.5t29.5 -19.5t36 -7t36 7t29.5 19.5t19.5 29.5t7 36v232z" />
    <glyph glyph-name="h" unicode="h" horiz-adv-x="370" 
d="M321 0h-48v357q0 19 -7 36t-19.5 29.5t-29.5 19.5t-36 7t-36 -7t-29.5 -19.5t-19.5 -29.5t-7 -36v-357h-47v703h47v-243q19 17 42.5 26t49.5 9q29 0 54.5 -10.5t44.5 -29.5t30 -44t11 -54v-357z" />
    <glyph glyph-name="j" unicode="j" horiz-adv-x="175" 
d="M40 -199q18 0 31 10.5t13 24.5v646h47v-646q0 -17 -7 -31.5t-19.5 -26t-29 -18t-35.5 -6.5v47zM77 670q0 13 9.5 23t20.5 10q14 0 23.5 -10t9.5 -23q0 -11 -9.5 -21t-23.5 -10q-11 0 -20.5 10t-9.5 21z" />
    <glyph glyph-name="l" unicode="l" horiz-adv-x="175" 
d="M131 0h-47v637q0 14 -13 23.5t-31 9.5v46q19 0 35.5 -6.5t29 -17t19.5 -25t7 -30.5v-637z" />
    <glyph glyph-name="m" unicode="m" horiz-adv-x="611" 
d="M554 0h-47v356q0 19 -7 36t-19.5 29.5t-29.5 19.5t-36 7q-38 0 -64.5 -25.5t-27.5 -62.5v-360h-47v356q0 19 -7 36t-19.5 29.5t-29.5 19.5t-36 7t-35.5 -7t-29 -19t-20 -28t-7.5 -34v-360h-48v482h48v-22q18 16 42 25.5t50 9.5q37 0 66.5 -16.5t48.5 -45.5
q19 29 48.5 45.5t67.5 16.5q28 0 53.5 -11t44.5 -29.5t30 -44t11 -54.5v-356z" />
    <glyph glyph-name="n" unicode="n" horiz-adv-x="370" 
d="M321 0h-48v357q0 19 -7 36t-19.5 29.5t-29.5 19.5t-36 7t-36 -7t-29.5 -19.5t-19.5 -29.5t-7 -36v-357h-47v482h47v-22q19 17 42.5 26t49.5 9q29 0 54.5 -10.5t44.5 -29.5t30 -44t11 -54v-357z" />
    <glyph glyph-name="p" unicode="p" horiz-adv-x="370" 
d="M321 126q0 -29 -11 -54t-30 -44t-44.5 -30t-54.5 -11q-26 0 -49.5 9.5t-42.5 25.5v-268h-47v603q0 29 11 54.5t30 44t44 29t54 10.5t54.5 -10.5t44.5 -29t30 -44t11 -54.5v-231zM273 357q0 19 -7 36t-19.5 29.5t-29.5 19.5t-36 7t-36 -7t-29.5 -19.5t-19.5 -29.5t-7 -36
v-231q0 -19 7 -36t19.5 -29.5t29.5 -20t36 -7.5t36 7.5t29.5 20t19.5 29.5t7 36v231z" />
    <glyph glyph-name="q" unicode="q" horiz-adv-x="370" 
d="M42 357q0 29 11 54.5t29.5 44t44 29t54.5 10.5q28 0 53.5 -10.5t45 -29t30.5 -44t11 -54.5v-603h-48v268q-18 -16 -42 -25.5t-50 -9.5q-29 0 -54.5 11t-44 30t-29.5 44t-11 54v231zM89 126q0 -19 7 -36t19.5 -29.5t29.5 -20t36 -7.5q18 0 34.5 7t29 19t20 28.5t8.5 34.5
v235q0 19 -7 36t-19.5 29.5t-29.5 19.5t-36 7t-36 -7t-29.5 -19.5t-19.5 -29.5t-7 -36v-231z" />
    <glyph glyph-name="r" unicode="r" horiz-adv-x="235" 
d="M190 449q-20 0 -38 -6.5t-32 -18.5t-22.5 -27.5t-9.5 -33.5v-363h-47v482h47v-22q19 16 45 25.5t57 9.5v-46z" />
    <glyph glyph-name="s" unicode="s" horiz-adv-x="370" 
d="M56 0v45h181q15 0 25.5 10.5t10.5 25.5q0 14 -10.5 23.5t-25.5 9.5h-56q-29 0 -54.5 11t-44 29.5t-29.5 44t-11 54.5v104q0 29 11 54t29.5 44t44 29.5t54.5 10.5q28 0 53.5 -11.5t45 -31.5t30.5 -47t11 -57h-48q0 21 -7 39t-19.5 32t-29.5 22t-36 8t-36 -7t-29.5 -19.5
t-19.5 -29.5t-7 -36v-104q0 -19 7 -36t19.5 -29.5t29.5 -20t36 -7.5h56q33 0 58 -21.5t26 -57.5q-1 -35 -26 -58t-58 -23h-181z" />
    <glyph glyph-name="t" unicode="t" horiz-adv-x="292" 
d="M245 46v-46h-122q-33 0 -57.5 23.5t-24.5 56.5v632h47v-217h157v-46h-157v-369q0 -14 10.5 -24t24.5 -10h122z" />
    <glyph glyph-name="u" unicode="u" horiz-adv-x="370" 
d="M181 -13q-29 0 -54 11t-44 30t-30 44t-11 54v356h47v-356q0 -19 7 -36t19.5 -29.5t29.5 -20t36 -7.5t36 7.5t29.5 20t19.5 29.5t7 36v356h48v-356q0 -29 -11 -54t-30 -44t-44.5 -30t-54.5 -11z" />
    <glyph glyph-name="v" unicode="v" horiz-adv-x="371" 
d="M203 0h-42l-122 482h49l94 -375l93 375h49z" />
    <glyph glyph-name="z" unicode="z" horiz-adv-x="372" 
d="M301 0h-265l218 437h-191v45h265l-219 -437h192v-45z" />
    <glyph glyph-name="w" unicode="w" horiz-adv-x="611" 
d="M435 0h-42l-94 374l-94 -374h-42l-121 482h48l94 -373l94 373h42l94 -373l94 373h49z" />
    <glyph glyph-name="x" unicode="x" horiz-adv-x="331" 
d="M37 482h53l73 -191l72 191h52l-96 -242q23 -57 48.5 -120t47.5 -120h-52l-72 189l-73 -189h-53l96 239z" />
    <glyph glyph-name="y" unicode="y" horiz-adv-x="377" 
d="M208 8v-254h-47v254l-122 474h50l96 -383l95 383h50z" />
    <glyph glyph-name="k" unicode="k" horiz-adv-x="373" 
d="M275 0l-57 114h-129v-114h-47v482h47v-322h152q14 0 24.5 11t10.5 25v286h47v-286q0 -27 -16 -48t-39 -30l61 -118h-54z" />
    <glyph glyph-name="at" unicode="@" horiz-adv-x="483" 
d="M237 0q-40 0 -75.5 15t-61.5 41.5t-41.5 61.5t-15.5 76v339q0 40 15.5 75.5t41.5 61.5t61.5 41t75.5 15t75 -15t61 -41t41.5 -61.5t15.5 -75.5v-520h-47v520q0 31 -11.5 58t-31 47t-46 31.5t-57.5 11.5q-30 0 -57 -11.5t-47 -31.5t-31.5 -47t-11.5 -58v-339
q0 -31 11.5 -58t31.5 -47.5t47 -32t57 -11.5h42q8 0 13.5 6t5.5 14v119q-30 -19 -65 -19q-23 0 -43 8.5t-35 23.5t-24 35.5t-9 44.5v174q0 23 9 43.5t24 35.5t35 23.5t43 8.5q24 0 44.5 -8.5t35.5 -23.5t23.5 -35.5t8.5 -43.5v-386q0 -26 -19 -45.5t-47 -19.5h-42zM233 517
q-26 0 -45 -19.5t-19 -46.5v-174q0 -28 19 -47.5t45 -19.5t44.5 17.5t20.5 43.5v180q0 27 -18.5 46.5t-46.5 19.5z" />
    <glyph glyph-name="slash" unicode="/" horiz-adv-x="391" 
d="M87 0h-49l260 712h48z" />
    <glyph glyph-name="period" unicode="." horiz-adv-x="146" 
d="M40 31q0 13 9.5 22.5t21.5 9.5q13 0 22.5 -9.5t9.5 -22.5q0 -12 -9.5 -21.5t-22.5 -9.5q-12 0 -21.5 9.5t-9.5 21.5z" />
    <glyph glyph-name="colon" unicode=":" horiz-adv-x="146" 
d="M40 359q0 12 9.5 22t21.5 10q13 0 22.5 -10t9.5 -22q0 -14 -9.5 -22.5t-22.5 -8.5q-12 0 -21.5 8.5t-9.5 22.5zM40 31q0 13 9.5 22.5t21.5 9.5q13 0 22.5 -9.5t9.5 -22.5q0 -12 -9.5 -21.5t-22.5 -9.5q-12 0 -21.5 9.5t-9.5 21.5z" />
    <glyph glyph-name="semicolon" unicode=";" horiz-adv-x="147" 
d="M104 360q0 -14 -8.5 -23t-22.5 -9t-23.5 9t-9.5 23q0 13 9.5 23t23.5 10t22.5 -10t8.5 -23zM98 -30q0 -18 -5 -21t-12 1t-15 12l-13 13l-4 4l-2 4q-1 2 -1 6v57q0 7 5 12t12 5h18q8 0 12.5 -5t4.5 -12v-76z" />
    <glyph glyph-name="comma" unicode="," horiz-adv-x="135" 
d="M93 -30q0 -18 -5 -21t-12.5 1t-15.5 12l-13 13l-3 4l-2 4q-2 4 -2 6v57q0 7 5 12t12 5h18q8 0 13 -5t5 -12v-76z" />
    <glyph glyph-name="hyphen" unicode="-" horiz-adv-x="367" 
d="M318 250h-276v46h276v-46z" />
    <glyph glyph-name="plus" unicode="+" horiz-adv-x="367" 
d="M157 133v117h-115v46h115v113h46v-113h115v-46h-115v-117h-46z" />
    <glyph glyph-name="question" unicode="?" horiz-adv-x="372" 
d="M206 97h-47v93q53 0 84.5 27.5t31.5 66.5v302q0 19 -7.5 36.5t-20 30t-29.5 20t-36 7.5t-36 -8t-29.5 -22.5t-20 -33.5t-7.5 -40h-47q0 31 11 58.5t30 47.5t44.5 32t54.5 12t54.5 -11t44.5 -30t30 -44.5t11 -54.5v-302q0 -26 -9 -49.5t-24.5 -42t-36.5 -31t-46 -16.5v-48
zM151 31q0 13 9.5 22.5t20.5 9.5q14 0 23.5 -9.5t9.5 -22.5q0 -12 -9.5 -21.5t-23.5 -9.5q-11 0 -20.5 9.5t-9.5 21.5z" />
    <glyph glyph-name="exclam" unicode="!" horiz-adv-x="129" 
d="M32 31q0 13 9.5 22.5t21.5 9.5q13 0 22.5 -9.5t9.5 -22.5q0 -12 -9.5 -21.5t-22.5 -9.5q-12 0 -21.5 9.5t-9.5 21.5zM40 712h47v-615h-47v615z" />
    <glyph glyph-name="grave" unicode="`" horiz-adv-x="185" 
d="M36 909h48l61 -160h-49z" />
    <glyph glyph-name="acute" unicode="&#xb4;" horiz-adv-x="185" 
d="M85 749h-49l61 160h48z" />
    <glyph glyph-name="percent" unicode="%" horiz-adv-x="550" 
d="M166 0h-49l258 703h48zM309 150q0 42 25.5 68t67.5 26t67.5 -26t25.5 -68v-68q0 -43 -25.5 -69t-67.5 -26t-67.5 26t-25.5 69v68zM44 631q0 43 25.5 69t67.5 26t67.5 -26t25.5 -69v-68q0 -42 -25.5 -68t-67.5 -26t-67.5 26t-25.5 68v68zM402 201q-25 0 -35.5 -14
t-10.5 -39v-65q0 -25 10.5 -39t35.5 -14t35.5 14.5t10.5 38.5v65q0 24 -10.5 38.5t-35.5 14.5zM137 683q-25 0 -35.5 -14t-10.5 -39v-65q0 -25 10.5 -39t35.5 -14t35.5 14.5t10.5 38.5v65q0 24 -10 38.5t-36 14.5z" />
    <glyph glyph-name="numbersign" unicode="#" horiz-adv-x="603" 
d="M156 0h-50l37 238h-99v46h107q7 38 11.5 76t11.5 77h-103v46h110q8 55 18 114.5t18 114.5h49l-36 -229h170q8 55 18 114.5t18 114.5h49l-36 -229h98v-46h-106l-22 -153h100v-46h-107l-37 -238h-50l37 238h-169zM200 284h170q7 38 11.5 76t11.5 77h-170z" />
    <glyph glyph-name="quotedbl" unicode="&#x22;" horiz-adv-x="203" 
d="M87 543h-47v169h47v-169zM159 543h-48v169h48v-169z" />
    <glyph glyph-name="quotesingle" unicode="'" horiz-adv-x="129" 
d="M87 543h-47v169h47v-169z" />
    <glyph glyph-name="equal" unicode="=" horiz-adv-x="437" 
d="M386 321h-343v46h343v-46zM386 175h-343v46h343v-46z" />
    <glyph glyph-name="parenleft" unicode="(" horiz-adv-x="159" 
d="M40 697q0 57 46 97l35 -30q-20 -21 -27 -34.5t-7 -36.5v-676q0 -11 1.5 -19.5t5.5 -16.5t10.5 -16.5t16.5 -18.5l-34 -29q-23 17 -35 43t-12 53v684z" />
    <glyph glyph-name="parenright" unicode=")" horiz-adv-x="159" 
d="M116 13q0 -27 -12 -53t-35 -43l-34 29q10 10 16.5 18.5t10.5 16.5t5.5 16.5t1.5 19.5v676q0 23 -7 36.5t-27 34.5l35 30q46 -42 46 -97v-684z" />
    <glyph glyph-name="fraction" unicode="&#x2044;" horiz-adv-x="391" 
d="M38 712h48l259 -712h-49z" />
    <glyph glyph-name="fi" unicode="&#xfb01;" horiz-adv-x="412" 
d="M361 -13q-19 0 -35.5 6.5t-29 17.5t-19.5 25.5t-7 31.5v415h47v-415q0 -14 13 -24t31 -10v-47zM189 114h-99v-114h-47v589q0 29 11 54t29.5 43.5t43.5 29t53 10.5t53 -11.5t43.5 -31.5t29.5 -46.5t11 -57.5h-47q0 21 -7 39.5t-19 32t-28.5 21.5t-35.5 8q-38 0 -64 -26.5
t-26 -64.5v-429h99v-46z" />
    <glyph glyph-name="fl" unicode="&#xfb02;" 
d="M189 114h-100v-114h-47v589q0 29 11 54t29.5 43.5t43.5 29t53 10.5t53 -10.5t44 -29t30 -43.5t11 -54v-589h-47v589q0 38 -26.5 64.5t-64.5 26.5t-64 -26.5t-26 -64.5v-429h100v-46z" />
    <glyph glyph-name="Lslash" unicode="&#x141;" horiz-adv-x="468" 
d="M419 0h-264v256l-99 -36l-17 43l116 42v407h48v-390l99 37l15 -44l-114 -43v-226h216v-46z" />
    <glyph glyph-name="lslash" unicode="&#x142;" horiz-adv-x="361" 
d="M200 0h-47v253l-98 -36l-16 42l114 42v332q0 14 -13 23.5t-31 9.5v46q19 0 35.5 -6.5t29 -17t19.5 -25t7 -30.5v-315l98 36l16 -43l-114 -42v-269z" />
    <glyph glyph-name="caron" unicode="&#x2c7;" horiz-adv-x="375" 
d="M93 726l91 -111l91 111h61l-129 -157h-45l-131 157h62z" />
    <glyph glyph-name="circumflex" unicode="&#x2c6;" horiz-adv-x="375" 
d="M31 569l131 157h45l129 -157h-61l-91 111l-91 -111h-62z" />
    <glyph glyph-name="perthousand" unicode="&#x2030;" horiz-adv-x="819" 
d="M47 212v48l710 235v-48zM257 150q0 42 25.5 68t67.5 26t67.5 -26t25.5 -68v-68q0 -43 -25.5 -69t-67.5 -26t-67.5 26t-25.5 69v68zM167 632q0 43 25.5 69t67.5 26q41 0 67 -26t26 -69v-68q0 -42 -26 -68t-67 -26q-42 0 -67.5 26t-25.5 68v68zM350 201q-25 0 -35.5 -14
t-10.5 -39v-65q0 -25 10.5 -39t35.5 -14t35.5 14.5t10.5 38.5v65q0 24 -10.5 38.5t-35.5 14.5zM260 684q-25 0 -35.5 -14t-10.5 -39v-65q0 -25 10.5 -39t35.5 -14q24 0 35 14.5t11 38.5v65q0 24 -10.5 38.5t-35.5 14.5zM451 150q0 42 25.5 68t67.5 26t67.5 -26t25.5 -68v-68
q0 -43 -25.5 -69t-67.5 -26t-67.5 26t-25.5 69v68zM544 201q-25 0 -35.5 -14t-10.5 -39v-65q0 -25 10.5 -39t35.5 -14t35.5 14.5t10.5 38.5v65q0 24 -10.5 38.5t-35.5 14.5z" />
    <glyph glyph-name="hungarumlaut" unicode="&#x2dd;" horiz-adv-x="315" 
d="M87 566h-49l60 161h48zM211 566h-48l60 161h48z" />
    <glyph glyph-name="ogonek" unicode="&#x2db;" horiz-adv-x="198" 
d="M37 19h47l75 -160h-64z" />
    <glyph glyph-name="cedilla" unicode="&#xb8;" horiz-adv-x="199" 
d="M99 -208h-64l75 160h48z" />
    <glyph glyph-name="less" unicode="&#x3c;" horiz-adv-x="302" 
d="M41 221v38l214 129v-52l-156 -97l156 -94v-52z" />
    <glyph glyph-name="greater" unicode="&#x3e;" horiz-adv-x="302" 
d="M41 93v52l156 95l-156 96v52l214 -129v-38z" />
    <glyph glyph-name="guillemotleft" unicode="&#xab;" horiz-adv-x="401" 
d="M41 222v36l214 161v-53l-160 -126l160 -125v-53zM137 222v36l214 161v-53l-160 -126l160 -125v-53z" />
    <glyph glyph-name="guillemotright" unicode="&#xbb;" horiz-adv-x="403" 
d="M138 62v53l160 125l-160 126v53l214 -161v-36zM42 62v53l160 125l-160 126v53l214 -161v-36z" />
    <glyph glyph-name="backslash" unicode="\" horiz-adv-x="391" 
d="M38 712h48l259 -712h-49z" />
    <glyph glyph-name="asciicircum" unicode="^" horiz-adv-x="448" 
d="M354 405l-134 251q-34 -63 -68.5 -125.5t-66.5 -125.5h-49l160 304h47l160 -304h-49z" />
    <glyph glyph-name="Agrave" unicode="&#xc0;" horiz-adv-x="367" 
d="M181 726q28 0 53.5 -11t45 -29.5t30.5 -44t11 -54.5v-587h-48v116h-183v-116h-48v587q0 29 11 54.5t30 44t44.5 29.5t53.5 11zM273 162v425q0 19 -7 35.5t-19.5 29t-29.5 20t-36 7.5q-38 0 -64.5 -27t-26.5 -65v-425h183zM101 920h48l62 -162h-50z" />
    <glyph glyph-name="Aacute" unicode="&#xc1;" 
d="M180 726q28 0 53.5 -11t45 -29.5t30.5 -44t11 -54.5v-587h-48v116h-183v-116h-48v587q0 29 11 54.5t30 44t44.5 29.5t53.5 11zM272 162v425q0 19 -7 35.5t-19.5 29t-29.5 20t-36 7.5q-38 0 -64.5 -27t-26.5 -65v-425h183zM200 758h-50l62 162h48z" />
    <glyph glyph-name="Atilde" unicode="&#xc3;" 
d="M220 758q-11 0 -23 4.5t-20 9.5t-17.5 9.5t-16.5 4.5q-5 0 -10.5 -3t-10.5 -7t-10 -9l-38 18q9 12 20 23q9 9 22 16.5t27 7.5q16 0 27.5 -5.5t20.5 -11.5q7 -5 14 -8t15 -3q11 0 22 9q5 4 11 9l35 -18q-11 -13 -22 -23q-10 -9 -22 -16t-24 -7zM180 726q28 0 53.5 -11
t45 -29.5t30.5 -44t11 -54.5v-587h-48v116h-183v-116h-48v587q0 29 11 54.5t30 44t44.5 29.5t53.5 11zM272 162v425q0 19 -7 35.5t-19.5 29t-29.5 20t-36 7.5q-38 0 -64.5 -27t-26.5 -65v-425h183z" />
    <glyph glyph-name="Adieresis" unicode="&#xc4;" 
d="M125 759q-12 0 -22 9.5t-10 21.5q0 13 10 23t22 10q14 0 22.5 -10t8.5 -23q0 -12 -8.5 -21.5t-22.5 -9.5zM237 759q-14 0 -23.5 9.5t-9.5 21.5q0 13 9.5 23t23.5 10q11 0 21 -10t10 -23q0 -12 -10 -21.5t-21 -9.5zM180 726q28 0 53.5 -11t45 -29.5t30.5 -44t11 -54.5
v-587h-48v116h-183v-116h-48v587q0 29 11 54.5t30 44t44.5 29.5t53.5 11zM272 162v425q0 19 -7 35.5t-19.5 29t-29.5 20t-36 7.5q-38 0 -64.5 -27t-26.5 -65v-425h183z" />
    <glyph glyph-name="dieresis" unicode="&#xa8;" horiz-adv-x="260" 
d="M73 810q-13 0 -22.5 10t-9.5 21q0 13 9.5 23t22.5 10q14 0 22 -10t8 -23q0 -11 -8 -21t-22 -10zM183 810q-13 0 -23 10t-10 21q0 13 10 23t23 10q11 0 21 -10t10 -23q0 -11 -10 -21t-21 -10z" />
    <glyph glyph-name="tilde" unicode="&#x2dc;" horiz-adv-x="291" 
d="M181 805q-11 0 -22.5 4.5t-20.5 9.5q-8 5 -17 9t-16 4q-5 0 -10 -3l-10 -6q-5 -4 -10 -9l-39 17q9 12 20 23q9 9 22 16.5t27 7.5q16 0 27 -5.5t21 -11.5q6 -4 13 -7t15 -3q5 0 11 2.5t11 5.5q5 4 11 9l35 -17q-11 -13 -22 -23q-10 -9 -22 -16t-24 -7z" />
    <glyph glyph-name="asciitilde" unicode="~" horiz-adv-x="487" 
d="M267 404q-10 3 -20.5 9t-18.5 10q-17 10 -34 18t-33 8q-15 0 -29.5 -8t-26.5 -18q-14 -11 -26 -25l-41 17q17 22 36 40q17 15 39 27.5t48 12.5q32 0 53.5 -9.5t40.5 -20.5q14 -9 29.5 -16.5t33.5 -7.5q17 0 32 4.5t26 9.5q12 6 23 14l42 -22q-25 -24 -58 -38.5t-64 -14.5
q-13 0 -26.5 2.5t-25.5 7.5z" />
    <glyph glyph-name="ring" unicode="&#x2da;" horiz-adv-x="254" 
d="M41 696q0 34 24.5 59t58.5 25q36 0 60 -25t24 -59q0 -35 -24 -59.5t-60 -24.5q-17 0 -32 6.5t-26.5 18t-18 26.5t-6.5 33zM87 696q0 -16 11 -27t26 -11q17 0 28 11t11 27q0 15 -11 26.5t-28 11.5q-15 0 -26 -11.5t-11 -26.5z" />
    <glyph glyph-name="Aring" unicode="&#xc5;" 
d="M96 765q0 34 25 59t59 25q36 0 60.5 -25t24.5 -59q0 -16 -6 -30.5t-14 -25.5q34 -17 54.5 -49t20.5 -73v-587h-48v116h-183v-116h-48v587q0 38 21.5 71.5t52.5 50.5q-19 23 -19 56zM272 162v425q0 19 -7 35.5t-19.5 29t-29.5 20t-36 7.5q-38 0 -64.5 -27t-26.5 -65v-425
h183zM143 765q0 -15 10.5 -26t27.5 -13q16 0 27 11t11 28q0 15 -11 26t-28 11q-15 0 -26 -11t-11 -26z" />
    <glyph glyph-name="AE" unicode="&#xc6;" horiz-adv-x="475" 
d="M315 116h-96v-70h207v-46h-254v116h-82v-116h-48v587q0 29 11 54.5t30 44t44 29.5t54 11h190v-47h-152v-517h96v-46zM172 162v517q-35 -3 -58.5 -30t-23.5 -62v-425h82z" />
    <glyph glyph-name="Ccedilla" unicode="&#xc7;" 
d="M151 -155h-66l67 144q-24 4 -44 16.5t-35 30.5t-23.5 40.5t-8.5 48.5v462q0 29 11 54.5t30 44t44.5 29.5t53.5 11q29 0 54.5 -12t44.5 -32t30 -47t11 -58h-48q0 21 -7 39.5t-19.5 32.5t-29.5 22t-36 8q-38 0 -64.5 -27t-26.5 -65v-462q0 -38 26.5 -65t64.5 -27q19 0 36 8
t29.5 22t19.5 32.5t7 39.5h48q0 -28 -9 -53t-25 -44.5t-37.5 -32.5t-45.5 -17z" />
    <glyph glyph-name="Egrave" unicode="&#xc8;" horiz-adv-x="342" 
d="M185 116h-96v-70h207v-46h-255v712h200v-46h-152v-504h96v-46zM61 921h48l62 -162h-50z" />
    <glyph glyph-name="Eacute" unicode="&#xc9;" horiz-adv-x="342" 
d="M185 116h-96v-70h207v-46h-255v712h200v-46h-152v-504h96v-46zM159 759h-50l62 162h48z" />
    <glyph glyph-name="Edieresis" unicode="&#xcb;" horiz-adv-x="342" 
d="M85 759q-13 0 -22.5 9.5t-9.5 21.5q0 13 9.5 23t22.5 10q14 0 22.5 -10t8.5 -23q0 -12 -8.5 -21.5t-22.5 -9.5zM197 759q-14 0 -23.5 9.5t-9.5 21.5q0 13 9.5 23t23.5 10q11 0 21 -10t10 -23q0 -12 -10 -21.5t-21 -9.5zM185 116h-96v-70h207v-46h-255v712h200v-46h-152
v-504h96v-46z" />
    <glyph glyph-name="Igrave" unicode="&#xcc;" horiz-adv-x="130" 
d="M88 0h-48v712h48v-712zM-18 921h49l61 -162h-50z" />
    <glyph glyph-name="Iacute" unicode="&#xcd;" horiz-adv-x="129" 
d="M88 0h-48v712h48v-712zM84 759h-50l62 162h48z" />
    <glyph glyph-name="Idieresis" unicode="&#xcf;" horiz-adv-x="260" 
d="M73 759q-13 0 -22.5 9.5t-9.5 21.5q0 13 9.5 23t22.5 10q14 0 22.5 -10t8.5 -23q0 -12 -8.5 -21.5t-22.5 -9.5zM185 759q-14 0 -23.5 9.5t-9.5 21.5q0 13 9.5 23t23.5 10q11 0 21 -10t10 -23q0 -12 -10 -21.5t-21 -9.5zM153 0h-48v712h48v-712z" />
    <glyph glyph-name="Eth" unicode="&#xd0;" horiz-adv-x="472" 
d="M156 0v333h-114v46h114v333h133q28 0 52.5 -10.5t42.5 -28.5t28.5 -42.5t10.5 -52.5v-444q0 -28 -10.5 -52.5t-28.5 -42.5t-42.5 -28.5t-52.5 -10.5h-133zM321 333h-117v-287h85q18 0 34.5 7t28.5 19t19 28t7 34v444q0 18 -7 34t-19 28t-28.5 19t-34.5 7h-85v-287h117
v-46z" />
    <glyph glyph-name="Ntilde" unicode="&#xd1;" 
d="M275 0l-186 557v-557h-48v712h45l186 -555v555h48v-712h-45zM218 759q-11 0 -23 4.5t-20 9.5t-17.5 9.5t-16.5 4.5q-5 0 -10.5 -3t-10.5 -7t-10 -9l-38 18q9 12 20 23q9 9 22 16.5t27 7.5q16 0 27.5 -5.5t20.5 -11.5q7 -5 14 -8t15 -3q5 0 11.5 2.5t11.5 6.5q6 4 11 9
l35 -18q-11 -13 -22 -23q-10 -9 -22 -16t-25 -7z" />
    <glyph glyph-name="Ograve" unicode="&#xd2;" 
d="M101 921h48l62 -162h-50zM180 -14q-28 0 -53.5 11t-44.5 30t-30 44.5t-11 53.5v462q0 28 11 53.5t30 44.5t44.5 30t53.5 11t53.5 -11t45 -30t30.5 -44.5t11 -53.5v-462q0 -28 -11 -53.5t-30.5 -44.5t-45 -30t-53.5 -11zM180 679q-19 0 -35.5 -7t-29 -19.5t-19.5 -29.5
t-7 -36v-462q0 -19 7 -36t19.5 -29.5t29 -19.5t35.5 -7t36 7t29.5 19.5t19.5 29.5t7 36v462q0 19 -7 36t-19.5 29.5t-29.5 19.5t-36 7z" />
    <glyph glyph-name="Oacute" unicode="&#xd3;" 
d="M200 759h-50l62 162h48zM180 -14q-28 0 -53.5 11t-44.5 30t-30 44.5t-11 53.5v462q0 28 11 53.5t30 44.5t44.5 30t53.5 11t53.5 -11t45 -30t30.5 -44.5t11 -53.5v-462q0 -28 -11 -53.5t-30.5 -44.5t-45 -30t-53.5 -11zM180 679q-19 0 -35.5 -7t-29 -19.5t-19.5 -29.5
t-7 -36v-462q0 -19 7 -36t19.5 -29.5t29 -19.5t35.5 -7t36 7t29.5 19.5t19.5 29.5t7 36v462q0 19 -7 36t-19.5 29.5t-29.5 19.5t-36 7z" />
    <glyph glyph-name="Otilde" unicode="&#xd5;" 
d="M220 759q-11 0 -23 4.5t-20 9.5t-17.5 9.5t-16.5 4.5q-5 0 -10.5 -3t-10.5 -7t-10 -9l-38 18q9 12 20 23q9 9 22 16.5t27 7.5q16 0 27.5 -5.5t20.5 -11.5q7 -5 14 -8t15 -3q11 0 22 9q5 4 11 9l35 -18q-11 -13 -22 -23q-10 -9 -22 -16t-24 -7zM180 -14q-28 0 -53.5 11
t-44.5 30t-30 44.5t-11 53.5v462q0 28 11 53.5t30 44.5t44.5 30t53.5 11t53.5 -11t45 -30t30.5 -44.5t11 -53.5v-462q0 -28 -11 -53.5t-30.5 -44.5t-45 -30t-53.5 -11zM180 679q-19 0 -35.5 -7t-29 -19.5t-19.5 -29.5t-7 -36v-462q0 -19 7 -36t19.5 -29.5t29 -19.5t35.5 -7
t36 7t29.5 19.5t19.5 29.5t7 36v462q0 19 -7 36t-19.5 29.5t-29.5 19.5t-36 7z" />
    <glyph glyph-name="Odieresis" unicode="&#xd6;" 
d="M125 759q-12 0 -22 9.5t-10 21.5q0 13 10 23t22 10q14 0 22.5 -10t8.5 -23q0 -12 -8.5 -21.5t-22.5 -9.5zM237 759q-14 0 -23.5 9.5t-9.5 21.5q0 13 9.5 23t23.5 10q11 0 21 -10t10 -23q0 -12 -10 -21.5t-21 -9.5zM180 -14q-28 0 -53.5 11t-44.5 30t-30 44.5t-11 53.5
v462q0 28 11 53.5t30 44.5t44.5 30t53.5 11t53.5 -11t45 -30t30.5 -44.5t11 -53.5v-462q0 -28 -11 -53.5t-30.5 -44.5t-45 -30t-53.5 -11zM180 679q-19 0 -35.5 -7t-29 -19.5t-19.5 -29.5t-7 -36v-462q0 -19 7 -36t19.5 -29.5t29 -19.5t35.5 -7t36 7t29.5 19.5t19.5 29.5
t7 36v462q0 19 -7 36t-19.5 29.5t-29.5 19.5t-36 7z" />
    <glyph glyph-name="Oslash" unicode="&#xd8;" horiz-adv-x="391" 
d="M298 712h50l-26 -74q5 -11 7 -25t2 -26v-462q0 -28 -11 -53.5t-30 -44.5t-44.5 -30t-53.5 -11q-29 0 -53.5 10t-43.5 28l-9 -24h-47l25 70q-11 25 -11 55v462q0 28 11 53.5t30 44.5t44 30t54 11q27 0 52.5 -11t44.5 -28zM192 679q-19 0 -35.5 -7t-29 -19.5t-19.5 -29.5
t-7 -36v-413l168 461q-12 18 -32.5 31t-44.5 13zM192 33q19 0 36 7t29.5 19.5t19.5 29.5t7 36v414l-169 -462q12 -19 32.5 -31.5t44.5 -12.5z" />
    <glyph glyph-name="Scaron" unicode="&#x160;" horiz-adv-x="360" 
d="M55 0v46h177q14 0 24.5 10t11.5 25q-1 14 -11.5 24.5t-24.5 10.5h-54q-28 0 -53 10.5t-43.5 28.5t-29.5 42.5t-11 53.5l1 338q0 28 10.5 53t29 44t43 29.5t53.5 10.5q28 0 53 -11.5t43.5 -31.5t29 -46.5t10.5 -56.5h-46q0 21 -7 39t-19.5 31.5t-29 21t-34.5 7.5
q-38 0 -64 -26t-26 -64v-338q0 -37 26 -63t64 -26h54q33 0 57.5 -23.5t24.5 -57.5q0 -33 -24.5 -57t-57.5 -24h-177zM85 917l93 -112l92 112h61l-130 -159h-46l-133 159h63z" />
    <glyph glyph-name="quotesinglbase" unicode="&#x201a;" horiz-adv-x="136" 
d="M40 9q0 6 4 11.5t12 5.5h19q7 0 12.5 -5.5t5.5 -11.5v-23q0 -3 -2 -7l-2 -4l-20 -20q-11 -11 -20 -7.5t-9 18.5v43z" />
    <glyph glyph-name="quotedblbase" unicode="&#x201e;" horiz-adv-x="199" 
d="M93 -34q0 -15 -9 -18.5t-20 7.5l-20 20l-2 4q-2 4 -2 7v23q0 6 5.5 11.5t12.5 5.5h19q7 0 11.5 -5.5t4.5 -11.5v-43zM155 -34q0 -15 -9.5 -18.5t-19.5 7.5l-20 20l-2 4q-2 4 -2 7v23q0 6 5 11.5t12 5.5h19q8 0 12.5 -5.5t4.5 -11.5v-43z" />
    <glyph glyph-name="ellipsis" unicode="&#x2026;" horiz-adv-x="620" 
d="M45 31q0 13 9.5 22.5t20.5 9.5q14 0 23.5 -9.5t9.5 -22.5q0 -12 -9.5 -21.5t-23.5 -9.5q-11 0 -20.5 9.5t-9.5 21.5zM271 31q0 13 10 22.5t21 9.5q13 0 23 -9.5t10 -22.5q0 -12 -10 -21.5t-23 -9.5q-11 0 -21 9.5t-10 21.5zM501 31q0 13 9.5 22.5t20.5 9.5
q14 0 23.5 -9.5t9.5 -22.5q0 -12 -9.5 -21.5t-23.5 -9.5q-11 0 -20.5 9.5t-9.5 21.5z" />
    <glyph glyph-name="dagger" unicode="&#x2020;" horiz-adv-x="367" 
d="M204 0h-47v250h-115v46h115v407h47v-407h114v-46h-114v-250z" />
    <glyph glyph-name="daggerdbl" unicode="&#x2021;" horiz-adv-x="437" 
d="M386 175h-148v-175h-47v175h-148v46h148v100h-148v46h148v336h47v-336h148v-46h-148v-100h148v-46z" />
    <glyph glyph-name="guilsinglleft" unicode="&#x2039;" horiz-adv-x="303" 
d="M42 223v34l214 213v-65l-162 -165l162 -164v-65z" />
    <glyph glyph-name="guilsinglright" unicode="&#x203a;" horiz-adv-x="302" 
d="M41 11v65l162 164l-162 165v65l214 -213v-34z" />
    <glyph glyph-name="scaron" unicode="&#x161;" horiz-adv-x="370" 
d="M56 0v45h181q15 0 25.5 10.5t10.5 25.5q0 14 -10.5 23.5t-25.5 9.5h-56q-29 0 -54.5 11t-44 29.5t-29.5 44t-11 54.5v104q0 29 11 54t29.5 44t44 29.5t54.5 10.5q28 0 53.5 -11.5t45 -31.5t30.5 -47t11 -57h-48q0 21 -7 39t-19.5 32t-29.5 22t-36 8t-36 -7t-29.5 -19.5
t-19.5 -29.5t-7 -36v-104q0 -19 7 -36t19.5 -29.5t29.5 -20t36 -7.5h56q33 0 58 -21.5t26 -57.5q-1 -35 -26 -58t-58 -23h-181zM90 698l91 -110l92 110h60l-129 -156h-45l-131 156h62z" />
    <glyph glyph-name="quotedblright" unicode="&#x201d;" horiz-adv-x="199" 
d="M93 667q0 -15 -9 -18.5t-20 7.5l-20 20l-2 4q-2 4 -2 7v23q0 6 5.5 11.5t12.5 5.5h19q7 0 11.5 -5.5t4.5 -11.5v-43zM155 667q0 -15 -9.5 -18.5t-19.5 7.5l-20 20l-2 4q-2 4 -2 7v23q0 6 5 11.5t12 5.5h19q8 0 12.5 -5.5t4.5 -11.5v-43z" />
    <glyph glyph-name="quotedblleft" unicode="&#x201c;" horiz-adv-x="199" 
d="M93 664q0 -6 -4.5 -11.5t-11.5 -5.5h-19q-7 0 -12.5 5.5t-5.5 11.5v23q0 3 2 7l2 4l20 20q11 11 20 7.5t9 -18.5v-43zM155 664q0 -6 -4.5 -11.5t-12.5 -5.5h-19q-7 0 -12 5.5t-5 11.5v23q0 3 2 7l2 4l20 20q10 11 19.5 7.5t9.5 -18.5v-43z" />
    <glyph glyph-name="quoteright" unicode="&#x2019;" horiz-adv-x="135" 
d="M93 667q0 -15 -9.5 -18.5t-19.5 7.5l-20 20l-2 4q-2 4 -2 7v23q0 6 5 11.5t12 5.5h19q8 0 12.5 -5.5t4.5 -11.5v-43z" />
    <glyph glyph-name="quoteleft" unicode="&#x2018;" horiz-adv-x="135" 
d="M40 707q0 15 9 18.5t20 -7.5l20 -20l2 -4q2 -4 2 -7v-23q0 -6 -5.5 -11.5t-12.5 -5.5h-19q-8 0 -12 5.5t-4 11.5v43z" />
    <glyph glyph-name="bullet" unicode="&#x2022;" horiz-adv-x="244" 
d="M41 330q0 33 22.5 56t56.5 23q33 0 55.5 -23t22.5 -56t-22.5 -55.5t-55.5 -22.5q-34 0 -56.5 22.5t-22.5 55.5z" />
    <glyph glyph-name="endash" unicode="&#x2013;" horiz-adv-x="397" 
d="M347 328h-305v46h305v-46z" />
    <glyph glyph-name="emdash" unicode="&#x2014;" horiz-adv-x="557" 
d="M502 328h-458v46h458v-46z" />
    <glyph glyph-name="underscore" unicode="_" horiz-adv-x="617" 
d="M560 -143h-515v46h515v-46z" />
    <glyph glyph-name="bracketleft" unicode="[" horiz-adv-x="228" 
d="M183 -71h-142v845h142v-46h-96v-753h96v-46z" />
    <glyph glyph-name="bracketright" unicode="]" horiz-adv-x="228" 
d="M41 774h142v-845h-142v46h96v753h-96v46z" />
    <glyph glyph-name="braceleft" unicode="{" horiz-adv-x="227" 
d="M134 8q0 -20 5 -27.5t25 -7.5h18v-44h-18q-45 0 -61 16.5t-16 61.5v288q0 13 -5.5 24t-19.5 11h-21v43h21q14 0 19.5 11t5.5 24v288q0 45 16 61.5t61 16.5h18v-44h-18q-20 0 -25 -7.5t-5 -27.5v-288q0 -19 -7 -32t-20 -24q13 -10 20 -23t7 -32v-288z" />
    <glyph glyph-name="braceright" unicode="}" horiz-adv-x="227" 
d="M134 8q0 -20 5 -27.5t25 -7.5h18v-44h-18q-45 0 -61 16.5t-16 61.5v288q0 13 -5.5 24t-19.5 11h-21v43h21q14 0 19.5 11t5.5 24v288q0 45 16 61.5t61 16.5h18v-44h-18q-20 0 -25 -7.5t-5 -27.5v-288q0 -19 -7 -32t-20 -24q13 -10 20 -23t7 -32v-288z" />
    <glyph glyph-name="bar" unicode="|" horiz-adv-x="129" 
d="M87 -71h-47v846h47v-846z" />
    <glyph glyph-name="OE" unicode="&#x152;" horiz-adv-x="712" 
d="M548 129h-97v-82h208v-47h-246q-73 0 -139.5 28.5t-117.5 77t-81.5 113t-30.5 137.5q0 78 31 143.5t82 113t117.5 74t138.5 26.5h190v-47h-152v-490h97v-47zM404 666q-61 -2 -117.5 -26.5t-100 -66t-69.5 -97.5t-26 -120q0 -65 27 -120.5t71 -96.5t100 -65.5t115 -26.5
v619z" />
    <glyph glyph-name="Ugrave" unicode="&#xd9;" 
d="M180 -14q-28 0 -53.5 11t-44.5 29.5t-30 44t-11 54.5v587h48v-587q0 -38 26.5 -65t64.5 -27q19 0 36 7.5t29.5 20t19.5 29t7 35.5v587h48v-587q0 -29 -11 -54.5t-30.5 -44t-45 -29.5t-53.5 -11zM98 921h48l62 -162h-50z" />
    <glyph glyph-name="Uacute" unicode="&#xda;" 
d="M180 -14q-28 0 -53.5 11t-44.5 29.5t-30 44t-11 54.5v587h48v-587q0 -38 26.5 -65t64.5 -27q19 0 36 7.5t29.5 20t19.5 29t7 35.5v587h48v-587q0 -29 -11 -54.5t-30.5 -44t-45 -29.5t-53.5 -11zM200 759h-50l62 162h48z" />
    <glyph glyph-name="Udieresis" unicode="&#xdc;" 
d="M180 -14q-28 0 -53.5 11t-44.5 29.5t-30 44t-11 54.5v587h48v-587q0 -38 26.5 -65t64.5 -27q19 0 36 7.5t29.5 20t19.5 29t7 35.5v587h48v-587q0 -29 -11 -54.5t-30.5 -44t-45 -29.5t-53.5 -11zM125 759q-12 0 -22 9.5t-10 21.5q0 13 10 23t22 10q14 0 22.5 -10t8.5 -23
q0 -12 -8.5 -21.5t-22.5 -9.5zM237 759q-14 0 -23.5 9.5t-9.5 21.5q0 13 9.5 23t23.5 10q11 0 21 -10t10 -23q0 -12 -10 -21.5t-21 -9.5z" />
    <glyph glyph-name="Yacute" unicode="&#xdd;" 
d="M204 122v-122h-47v122l-118 590h48l93 -464q11 55 23.5 114t24.5 118.5t23.5 118.5t22.5 113h48zM201 759h-50l62 162h48z" />
    <glyph glyph-name="agrave" unicode="&#xe0;" horiz-adv-x="370" 
d="M89 495h92q29 0 54.5 -11t44.5 -30t30 -44.5t11 -53.5v-356h-48v21q-18 -16 -42 -25t-50 -9q-29 0 -54.5 10.5t-44 29.5t-29.5 44t-11 54v81q0 29 11 54.5t29.5 44.5t44 30t54.5 11q26 0 50 -10t42 -26v55q0 16 -8 31t-21 27t-29.5 19t-33.5 7h-92v46zM181 300
q-19 0 -36 -7.5t-29.5 -20.5t-19.5 -30t-7 -36v-81q0 -19 7 -36t19.5 -29.5t29.5 -19.5t36 -7t36 7t29.5 19.5t19.5 29.5t7 36v81q0 19 -7 36t-19.5 30t-29.5 20.5t-36 7.5zM103 703h48l60 -161h-49z" />
    <glyph glyph-name="aacute" unicode="&#xe1;" horiz-adv-x="370" 
d="M89 495h92q29 0 54.5 -11t44.5 -30t30 -44.5t11 -53.5v-356h-48v21q-18 -16 -42 -25t-50 -9q-29 0 -54.5 10.5t-44 29.5t-29.5 44t-11 54v81q0 29 11 54.5t29.5 44.5t44 30t54.5 11q26 0 50 -10t42 -26v55q0 16 -8 31t-21 27t-29.5 19t-33.5 7h-92v46zM181 300
q-19 0 -36 -7.5t-29.5 -20.5t-19.5 -30t-7 -36v-81q0 -19 7 -36t19.5 -29.5t29.5 -19.5t36 -7t36 7t29.5 19.5t19.5 29.5t7 36v81q0 19 -7 36t-19.5 30t-29.5 20.5t-36 7.5zM200 542h-49l60 161h48z" />
    <glyph glyph-name="acircumflex" unicode="&#xe2;" horiz-adv-x="370" 
d="M89 495h92q29 0 54.5 -11t44.5 -30t30 -44.5t11 -53.5v-356h-48v21q-18 -16 -42 -25t-50 -9q-29 0 -54.5 10.5t-44 29.5t-29.5 44t-11 54v81q0 29 11 54.5t29.5 44.5t44 30t54.5 11q26 0 50 -10t42 -26v55q0 16 -8 31t-21 27t-29.5 19t-33.5 7h-92v46zM181 300
q-19 0 -36 -7.5t-29.5 -20.5t-19.5 -30t-7 -36v-81q0 -19 7 -36t19.5 -29.5t29.5 -19.5t36 -7t36 7t29.5 19.5t19.5 29.5t7 36v81q0 19 -7 36t-19.5 30t-29.5 20.5t-36 7.5zM28 542l131 156h45l129 -156h-60l-92 110l-91 -110h-62z" />
    <glyph glyph-name="atilde" unicode="&#xe3;" horiz-adv-x="370" 
d="M89 495h92q29 0 54.5 -11t44.5 -30t30 -44.5t11 -53.5v-356h-48v21q-18 -16 -42 -25t-50 -9q-29 0 -54.5 10.5t-44 29.5t-29.5 44t-11 54v81q0 29 11 54.5t29.5 44.5t44 30t54.5 11q26 0 50 -10t42 -26v55q0 16 -8 31t-21 27t-29.5 19t-33.5 7h-92v46zM181 300
q-19 0 -36 -7.5t-29.5 -20.5t-19.5 -30t-7 -36v-81q0 -19 7 -36t19.5 -29.5t29.5 -19.5t36 -7t36 7t29.5 19.5t19.5 29.5t7 36v81q0 19 -7 36t-19.5 30t-29.5 20.5t-36 7.5zM221 542q-12 0 -23.5 4.5t-20.5 9.5q-8 5 -17 9t-16 4q-5 0 -10 -3l-10 -6q-5 -4 -10 -9l-38 17
q9 12 20 23q9 9 21.5 16.5t26.5 7.5q16 0 27 -5.5t21 -11.5q7 -5 13.5 -7.5t15.5 -2.5q5 0 10.5 2.5t10.5 5.5q5 4 11 9l35 -17q-11 -13 -22 -23q-10 -9 -21.5 -16t-23.5 -7z" />
    <glyph glyph-name="adieresis" unicode="&#xe4;" horiz-adv-x="370" 
d="M89 495h92q29 0 54.5 -11t44.5 -30t30 -44.5t11 -53.5v-356h-48v21q-18 -16 -42 -25t-50 -9q-29 0 -54.5 10.5t-44 29.5t-29.5 44t-11 54v81q0 29 11 54.5t29.5 44.5t44 30t54.5 11q26 0 50 -10t42 -26v55q0 16 -8 31t-21 27t-29.5 19t-33.5 7h-92v46zM181 300
q-19 0 -36 -7.5t-29.5 -20.5t-19.5 -30t-7 -36v-81q0 -19 7 -36t19.5 -29.5t29.5 -19.5t36 -7t36 7t29.5 19.5t19.5 29.5t7 36v81q0 19 -7 36t-19.5 30t-29.5 20.5t-36 7.5zM127 542q-13 0 -22.5 10t-9.5 21q0 13 9.5 23t22.5 10q14 0 22 -10t8 -23q0 -11 -8 -21t-22 -10z
M237 542q-13 0 -23 10t-10 21q0 13 10 23t23 10q11 0 21 -10t10 -23q0 -11 -10 -21t-21 -10z" />
    <glyph glyph-name="aring" unicode="&#xe5;" horiz-adv-x="370" 
d="M89 495h92q29 0 54.5 -11t44.5 -30t30 -44.5t11 -53.5v-356h-48v21q-18 -16 -42 -25t-50 -9q-29 0 -54.5 10.5t-44 29.5t-29.5 44t-11 54v81q0 29 11 54.5t29.5 44.5t44 30t54.5 11q26 0 50 -10t42 -26v55q0 16 -8 31t-21 27t-29.5 19t-33.5 7h-92v46zM181 300
q-19 0 -36 -7.5t-29.5 -20.5t-19.5 -30t-7 -36v-81q0 -19 7 -36t19.5 -29.5t29.5 -19.5t36 -7t36 7t29.5 19.5t19.5 29.5t7 36v81q0 19 -7 36t-19.5 30t-29.5 20.5t-36 7.5zM100 626q0 34 24.5 59t58.5 25q18 0 33 -7t26.5 -18.5t18 -26.5t6.5 -32q0 -35 -24.5 -59.5
t-59.5 -24.5q-17 0 -32 6.5t-26.5 18t-18 26.5t-6.5 33zM146 626q0 -16 11 -27t26 -11q16 0 27.5 11t11.5 27q0 15 -11.5 26t-27.5 11q-15 0 -26 -11t-11 -26z" />
    <glyph glyph-name="ccedilla" unicode="&#xe7;" horiz-adv-x="369" 
d="M151 -153h-66l67 142q-48 10 -79 48t-31 88v231q0 29 11 54.5t29.5 44t43.5 29.5t54 11t54.5 -11.5t44.5 -31.5t30 -47t11 -58h-47q0 21 -7.5 39.5t-20 32.5t-29.5 22t-36 8t-35.5 -7.5t-29 -20t-19.5 -29.5t-7 -36v-231q0 -19 7 -36t19.5 -29.5t29 -19.5t35.5 -7t36 8
t29.5 21.5t20 31.5t7.5 39h47q0 -27 -9 -51.5t-25 -44t-38 -32.5t-47 -17z" />
    <glyph glyph-name="egrave" unicode="&#xe8;" horiz-adv-x="370" 
d="M306 0h-125q-29 0 -54.5 11t-44 30t-29.5 44t-11 54v217q0 29 11 54.5t29.5 44t44 29.5t54.5 11q28 0 53.5 -11t45 -29.5t30.5 -44t11 -54.5v-242h-229q8 -29 32.5 -49t56.5 -20h125v-45zM89 160h184v196q0 19 -7 36t-19.5 29.5t-29.5 20t-36 7.5t-36 -7.5t-29.5 -20
t-19.5 -29.5t-7 -36v-196zM102 702h48l60 -160h-49z" />
    <glyph glyph-name="eacute" unicode="&#xe9;" horiz-adv-x="370" 
d="M306 0h-125q-29 0 -54.5 11t-44 30t-29.5 44t-11 54v217q0 29 11 54.5t29.5 44t44 29.5t54.5 11q28 0 53.5 -11t45 -29.5t30.5 -44t11 -54.5v-242h-229q8 -29 32.5 -49t56.5 -20h125v-45zM89 160h184v196q0 19 -7 36t-19.5 29.5t-29.5 20t-36 7.5t-36 -7.5t-29.5 -20
t-19.5 -29.5t-7 -36v-196zM201 542h-49l60 161h48z" />
    <glyph glyph-name="ecircumflex" unicode="&#xea;" horiz-adv-x="370" 
d="M306 0h-125q-29 0 -54.5 11t-44 30t-29.5 44t-11 54v217q0 29 11 54.5t29.5 44t44 29.5t54.5 11q28 0 53.5 -11t45 -29.5t30.5 -44t11 -54.5v-242h-229q8 -29 32.5 -49t56.5 -20h125v-45zM89 160h184v196q0 19 -7 36t-19.5 29.5t-29.5 20t-36 7.5t-36 -7.5t-29.5 -20
t-19.5 -29.5t-7 -36v-196zM29 542l130 157h45l129 -157h-60l-92 112l-91 -112h-61z" />
    <glyph glyph-name="edieresis" unicode="&#xeb;" horiz-adv-x="370" 
d="M306 0h-125q-29 0 -54.5 11t-44 30t-29.5 44t-11 54v217q0 29 11 54.5t29.5 44t44 29.5t54.5 11q28 0 53.5 -11t45 -29.5t30.5 -44t11 -54.5v-242h-229q8 -29 32.5 -49t56.5 -20h125v-45zM89 160h184v196q0 19 -7 36t-19.5 29.5t-29.5 20t-36 7.5t-36 -7.5t-29.5 -20
t-19.5 -29.5t-7 -36v-196zM127 542q-13 0 -22.5 9.5t-9.5 20.5q0 14 9.5 23.5t22.5 9.5q14 0 22 -9.5t8 -23.5q0 -11 -8 -20.5t-22 -9.5zM237 542q-13 0 -23 9.5t-10 20.5q0 14 10 23.5t23 9.5q11 0 21 -9.5t10 -23.5q0 -11 -10 -20.5t-21 -9.5z" />
    <glyph glyph-name="igrave" unicode="&#xec;" horiz-adv-x="129" 
d="M-18 703h48l60 -161h-49zM39 0v482h47v-482h-47z" />
    <glyph glyph-name="iacute" unicode="&#xed;" horiz-adv-x="129" 
d="M83 542h-49l61 161h48zM40 0v482h47v-482h-47z" />
    <glyph glyph-name="icircumflex" unicode="&#xee;" horiz-adv-x="125" 
d="M-91 542l130 157h45l129 -157h-61l-91 112l-91 -112h-61zM37 0v482h47v-482h-47z" />
    <glyph glyph-name="idieresis" unicode="&#xef;" horiz-adv-x="123" 
d="M7 542q-13 0 -22.5 10t-9.5 21q0 13 9.5 23t22.5 10q14 0 22 -10t8 -23q0 -11 -8 -21t-22 -10zM117 542q-13 0 -23 10t-10 21q0 13 10 23t23 10q11 0 21 -10t10 -23q0 -11 -10 -21t-21 -10zM39 0v482h47v-482h-47z" />
    <glyph glyph-name="ntilde" unicode="&#xf1;" horiz-adv-x="370" 
d="M321 0h-48v357q0 19 -7 36t-19.5 29.5t-29.5 19.5t-36 7t-36 -7t-29.5 -19.5t-19.5 -29.5t-7 -36v-357h-47v482h47v-22q19 17 42.5 26t49.5 9q29 0 54.5 -10.5t44.5 -29.5t30 -44t11 -54v-357zM222 542q-12 0 -23.5 4.5t-20.5 9.5q-8 5 -17 9t-16 4q-5 0 -10 -3l-10 -6
q-5 -4 -10 -9l-38 17q9 12 20 23q9 9 21.5 16.5t26.5 7.5q16 0 27 -5.5t21 -11.5q13 -10 29 -10q5 0 10.5 2.5t10.5 5.5q5 4 11 9l35 -17q-11 -13 -22 -23q-10 -9 -21.5 -16t-23.5 -7z" />
    <glyph glyph-name="ograve" unicode="&#xf2;" 
d="M103 703h48l60 -161h-49zM179 -13q-28 0 -53 11t-43.5 29.5t-29.5 43.5t-11 53v234q0 28 11 53t29.5 43.5t43.5 29.5t53 11t53 -11t44 -29.5t30 -43.5t11 -53v-234q0 -28 -11 -53t-30 -43.5t-44 -29.5t-53 -11zM179 449q-38 0 -64 -26t-26 -64v-236q0 -38 26 -64t64 -26
t64.5 26t26.5 64v236q0 38 -26.5 64t-64.5 26z" />
    <glyph glyph-name="oacute" unicode="&#xf3;" 
d="M199 542h-49l60 161h48zM179 -13q-28 0 -53 11t-43.5 29.5t-29.5 43.5t-11 53v234q0 28 11 53t29.5 43.5t43.5 29.5t53 11t53 -11t44 -29.5t30 -43.5t11 -53v-234q0 -28 -11 -53t-30 -43.5t-44 -29.5t-53 -11zM179 449q-38 0 -64 -26t-26 -64v-236q0 -38 26 -64t64 -26
t64.5 26t26.5 64v236q0 38 -26.5 64t-64.5 26z" />
    <glyph glyph-name="ocircumflex" unicode="&#xf4;" 
d="M28 542l131 156h45l129 -156h-60l-92 110l-91 -110h-62zM179 -13q-28 0 -53 11t-43.5 29.5t-29.5 43.5t-11 53v234q0 28 11 53t29.5 43.5t43.5 29.5t53 11t53 -11t44 -29.5t30 -43.5t11 -53v-234q0 -28 -11 -53t-30 -43.5t-44 -29.5t-53 -11zM179 449q-38 0 -64 -26
t-26 -64v-236q0 -38 26 -64t64 -26t64.5 26t26.5 64v236q0 38 -26.5 64t-64.5 26z" />
    <glyph glyph-name="otilde" unicode="&#xf5;" 
d="M220 542q-12 0 -23.5 4.5t-20.5 9.5q-8 5 -17 9t-16 4q-5 0 -10 -3l-10 -6q-5 -4 -10 -9l-38 17q9 12 20 23q9 9 21.5 16.5t26.5 7.5q16 0 27 -5.5t21 -11.5q7 -5 13.5 -7.5t15.5 -2.5q5 0 10.5 2.5t10.5 5.5q5 4 11 9l35 -17q-11 -13 -22 -23q-10 -9 -21.5 -16t-23.5 -7
zM179 -13q-28 0 -53 11t-43.5 29.5t-29.5 43.5t-11 53v234q0 28 11 53t29.5 43.5t43.5 29.5t53 11t53 -11t44 -29.5t30 -43.5t11 -53v-234q0 -28 -11 -53t-30 -43.5t-44 -29.5t-53 -11zM179 449q-38 0 -64 -26t-26 -64v-236q0 -38 26 -64t64 -26t64.5 26t26.5 64v236
q0 38 -26.5 64t-64.5 26z" />
    <glyph glyph-name="odieresis" unicode="&#xf6;" 
d="M125 542q-13 0 -22.5 9.5t-9.5 20.5q0 14 9.5 23.5t22.5 9.5q14 0 22 -9.5t8 -23.5q0 -11 -8 -20.5t-22 -9.5zM235 542q-13 0 -23 9.5t-10 20.5q0 14 10 23.5t23 9.5q11 0 21 -9.5t10 -23.5q0 -11 -10 -20.5t-21 -9.5zM179 -13q-28 0 -53 11t-43.5 29.5t-29.5 43.5
t-11 53v234q0 28 11 53t29.5 43.5t43.5 29.5t53 11t53 -11t44 -29.5t30 -43.5t11 -53v-234q0 -28 -11 -53t-30 -43.5t-44 -29.5t-53 -11zM179 449q-38 0 -64 -26t-26 -64v-236q0 -38 26 -64t64 -26t64.5 26t26.5 64v236q0 38 -26.5 64t-64.5 26z" />
    <glyph glyph-name="divide" unicode="&#xf7;" horiz-adv-x="367" 
d="M318 250h-276v46h276v-46zM148 437q0 12 9.5 22t20.5 10q14 0 23.5 -10t9.5 -22q0 -14 -9.5 -22.5t-23.5 -8.5q-11 0 -20.5 8.5t-9.5 22.5zM148 108q0 14 9.5 23.5t20.5 9.5q14 0 23.5 -9.5t9.5 -23.5q0 -11 -9.5 -20.5t-23.5 -9.5q-11 0 -20.5 9.5t-9.5 20.5z" />
    <glyph glyph-name="oslash" unicode="&#xf8;" horiz-adv-x="391" 
d="M99 460q39 34 91 34q28 0 53 -11t43.5 -29.5t29.5 -43.5t11 -53v-234q0 -17 -2.5 -31.5t-10.5 -28.5l34 -63h-52l-12 21q-35 -35 -94 -35q-28 0 -53 11t-43.5 29.5t-29.5 43.5t-11 53v234q0 36 16 65q-6 13 -16.5 30.5t-15.5 29.5h50zM190 32q46 0 70 33q-21 40 -40.5 76
t-39 71.5t-39 72t-41.5 76.5v-239q0 -38 26 -64t64 -26zM190 448q-20 0 -38 -8t-30 -22l158 -294v234q0 38 -26 64t-64 26z" />
    <glyph glyph-name="ugrave" unicode="&#xf9;" horiz-adv-x="370" 
d="M181 -13q-29 0 -54 11t-44 30t-30 44t-11 54v356h47v-356q0 -19 7 -36t19.5 -29.5t29.5 -20t36 -7.5t36 7.5t29.5 20t19.5 29.5t7 36v356h48v-356q0 -29 -11 -54t-30 -44t-44.5 -30t-54.5 -11zM105 703h48l61 -161h-49z" />
    <glyph glyph-name="uacute" unicode="&#xfa;" horiz-adv-x="370" 
d="M181 -13q-29 0 -54 11t-44 30t-30 44t-11 54v356h47v-356q0 -19 7 -36t19.5 -29.5t29.5 -20t36 -7.5t36 7.5t29.5 20t19.5 29.5t7 36v356h48v-356q0 -29 -11 -54t-30 -44t-44.5 -30t-54.5 -11zM201 542h-49l60 161h48z" />
    <glyph glyph-name="ucircumflex" unicode="&#xfb;" horiz-adv-x="375" 
d="M183 -13q-29 0 -54 11t-44 30t-30 44t-11 54v356h47v-356q0 -19 7 -36t19.5 -29.5t29.5 -20t36 -7.5t36 7.5t29.5 20t19.5 29.5t7 36v356h47v-356q0 -29 -11 -54t-29.5 -44t-44 -30t-54.5 -11zM30 542l131 156h45l129 -156h-61l-91 110l-91 -110h-62z" />
    <glyph glyph-name="udieresis" unicode="&#xfc;" horiz-adv-x="370" 
d="M181 -13q-29 0 -54 11t-44 30t-30 44t-11 54v356h47v-356q0 -19 7 -36t19.5 -29.5t29.5 -20t36 -7.5t36 7.5t29.5 20t19.5 29.5t7 36v356h48v-356q0 -29 -11 -54t-30 -44t-44.5 -30t-54.5 -11zM127 542q-13 0 -22.5 10t-9.5 21q0 13 9.5 23t22.5 10q14 0 22 -10t8 -23
q0 -11 -8 -21t-22 -10zM237 542q-13 0 -23 10t-10 21q0 13 10 23t23 10q11 0 21 -10t10 -23q0 -11 -10 -21t-21 -10z" />
    <glyph glyph-name="yacute" unicode="&#xfd;" horiz-adv-x="377" 
d="M208 8v-254h-47v254l-122 474h50l96 -383l95 383h50zM205 542h-49l61 160h48z" />
    <glyph glyph-name="Thorn" unicode="&#xde;" 
d="M320 255q0 -29 -11 -54.5t-30.5 -44.5t-45 -29.5t-53.5 -10.5h-91v-116h-48v712h48v-116h91q28 0 53.5 -11t45 -29.5t30.5 -44t11 -54.5v-202zM89 162h91q19 0 36 7.5t29.5 20t19.5 29.5t7 36v202q0 19 -7 36t-19.5 29.5t-29.5 20t-36 7.5h-91v-388z" />
    <glyph glyph-name="thorn" unicode="&#xfe;" horiz-adv-x="370" 
d="M89 0h-47v712h47v-142q19 16 42.5 26t49.5 10q29 0 54.5 -11t44.5 -29.5t30 -44t11 -54.5v-232q0 -29 -11 -54t-30 -44t-44.5 -29.5t-54.5 -10.5q-26 0 -49.5 9t-42.5 26v-132zM181 560q-19 0 -36 -7.5t-29.5 -20t-19.5 -29.5t-7 -36v-232q0 -19 7 -36t19.5 -29.5
t29.5 -19.5t36 -7t36 7t29.5 19.5t19.5 29.5t7 36v232q0 19 -7 36t-19.5 29.5t-29.5 20t-36 7.5z" />
    <glyph glyph-name="breve" unicode="&#x2d8;" horiz-adv-x="301" 
d="M78 712q2 -15 11 -26q7 -10 21 -18t37 -8t37 8t22 18q9 11 11 26h37q0 -23 -9.5 -41.5t-25 -31t-34.5 -19t-38 -6.5q-18 0 -37 6.5t-34.5 19t-25 31t-9.5 41.5h37z" />
    <glyph glyph-name="dotaccent" unicode="&#x2d9;" horiz-adv-x="146" 
d="M40 679q0 14 9.5 23.5t21.5 9.5q13 0 22.5 -9.5t9.5 -23.5q0 -11 -9.5 -20.5t-22.5 -9.5q-12 0 -21.5 9.5t-9.5 20.5z" />
    <glyph glyph-name="dotlessi" unicode="&#x131;" horiz-adv-x="181" 
d="M134 -13q-19 0 -35.5 6.5t-29 17.5t-19.5 25.5t-7 31.5v415l47 -1v-414q0 -14 13 -24t31 -10v-47z" />
    <glyph glyph-name="Zcaron" unicode="&#x17d;" horiz-adv-x="377" 
d="M311 0h-272l229 666h-207v46h273l-231 -666h208v-46zM93 917l92 -112l93 112h61l-130 -158h-46l-133 158h63z" />
    <glyph glyph-name="zcaron" unicode="&#x17e;" horiz-adv-x="372" 
d="M301 0h-265l218 437h-191v45h265l-219 -437h192v-45zM91 698l91 -110l91 110h61l-129 -156h-45l-131 156h62z" />
    <glyph glyph-name="trademark" unicode="&#x2122;" horiz-adv-x="769" 
d="M512 433l151 279h45v-429h-47v323q-37 -67 -75.5 -138t-73.5 -136l-149 274v-323h-47v429h44zM293 667h-100v-384h-47v384h-100v45h247v-45z" />
    <glyph glyph-name="oe" unicode="&#x153;" horiz-adv-x="607" 
d="M412 482q28 0 53 -11t44 -30t30 -44t11 -54v-215h-228q8 -31 31 -55.5t54 -26.5h129v-46h-237q-53 2 -99.5 20.5t-81 50t-54.5 75t-20 95.5q0 55 21.5 99t57 75.5t81.5 48.5t95 18h113zM308 46q-17 19 -26.5 43t-9.5 50v204q0 26 9.5 50t26.5 43h-9q-43 0 -80.5 -15
t-66 -40.5t-45 -61.5t-16.5 -78q0 -43 16.5 -78.5t45 -61.5t66 -40.5t80.5 -14.5h9zM319 174h184v169q0 19 -7 36t-19.5 29.5t-29.5 20t-36 7.5t-36 -7.5t-29.5 -20t-19.5 -29.5t-7 -36v-169z" />
    <glyph glyph-name="Ydieresis" unicode="&#x178;" 
d="M204 122v-122h-47v122l-118 590h48l93 -464q11 55 23.5 114t24.5 118.5t23.5 118.5t22.5 113h48zM125 759q-12 0 -22 9.5t-10 21.5q0 13 10 23t22 10q14 0 22.5 -10t8.5 -23q0 -12 -8.5 -21.5t-22.5 -9.5zM237 759q-14 0 -23.5 9.5t-9.5 21.5q0 13 9.5 23t23.5 10
q11 0 21 -10t10 -23q0 -12 -10 -21.5t-21 -9.5z" />
    <glyph glyph-name="exclamdown" unicode="&#xa1;" horiz-adv-x="129" 
d="M32 451q0 12 9.5 21.5t21.5 9.5q13 0 22.5 -9.5t9.5 -21.5q0 -13 -9.5 -22.5t-22.5 -9.5q-12 0 -21.5 9.5t-9.5 22.5zM40 385h47v-606h-47v606z" />
    <glyph glyph-name="ae" unicode="&#xe6;" horiz-adv-x="611" 
d="M540 0h-125q-26 0 -50 8.5t-42 25.5v-34h-47v21q-19 -16 -43 -25t-49 -9q-29 0 -54.5 10.5t-44.5 29.5t-30 44t-11 54v81q0 29 11 54.5t30 44.5t44.5 30t54.5 11q25 0 49 -10t43 -26v55q0 16 -8 31t-21 27t-29.5 19t-33.5 7h-92v46h92q38 0 67 -16.5t48 -45.5
q19 29 48.5 45.5t67.5 16.5q28 0 53.5 -11t44.5 -29.5t30 -44t11 -54.5v-242h-228q8 -29 32.5 -49t56.5 -20h125v-45zM323 160h184v196q0 19 -7 36t-19.5 29.5t-29.5 20t-36 7.5t-36 -7.5t-29.5 -20t-19.5 -29.5t-7 -36v-196zM184 300q-19 0 -36 -7.5t-29.5 -20.5t-19.5 -30
t-7 -36v-81q0 -19 7 -36t19.5 -29.5t29.5 -19.5t36 -7t36 7t29.5 19.5t19.5 29.5t7 36v81q0 19 -7 36t-19.5 30t-29.5 20.5t-36 7.5z" />
    <glyph glyph-name="brokenbar" unicode="&#xa6;" horiz-adv-x="129" 
d="M40 775h47v-364h-47v364zM87 -71h-47v363h47v-363z" />
    <glyph glyph-name="ordfeminine" unicode="&#xaa;" horiz-adv-x="370" 
d="M96 712h80q25 0 47 -7.5t38 -21t25.5 -33t9.5 -43.5v-249h-41v19q-33 -30 -79 -30q-25 0 -47 9.5t-38 25.5t-25.5 37.5t-9.5 46.5v12q0 25 9.5 47t25.5 38t38 25.5t47 9.5q22 0 42.5 -8.5t36.5 -22.5v48q0 13 -7 24t-18.5 18t-25.5 11t-28 4h-80v40zM176 559
q-33 0 -56.5 -24t-23.5 -57v-12q0 -33 23.5 -56t56.5 -23q32 0 55.5 23t23.5 56v12q0 16 -6.5 31t-17 26t-25 17.5t-30.5 6.5z" />
    <glyph glyph-name="Abreve" unicode="&#x102;" 
d="M180 726q28 0 53.5 -11t45 -29.5t30.5 -44t11 -54.5v-587h-48v116h-183v-116h-48v587q0 29 11 54.5t30 44t44.5 29.5t53.5 11zM272 162v425q0 19 -7 35.5t-19.5 29t-29.5 20t-36 7.5q-38 0 -64.5 -27t-26.5 -65v-425h183zM109 859q2 -16 11 -27q8 -11 22 -19t38 -8
t37.5 8t21.5 19q9 11 12 27h36q0 -24 -9.5 -42.5t-25 -31.5t-34.5 -19.5t-38 -6.5t-38 7t-34.5 20t-25 31.5t-9.5 41.5h36z" />
    <glyph glyph-name="Aogonek" unicode="&#x104;" horiz-adv-x="365" 
d="M181 726q28 0 53.5 -11t44.5 -29.5t30 -44t11 -54.5v-575l73 -155h-66l-55 153v106h-182v-116h-48v587q0 29 11 54.5t30 44t44 29.5t54 11zM272 162v425q0 19 -7 35.5t-19.5 29t-29 20t-35.5 7.5t-35.5 -7.5t-29 -20t-19.5 -29t-7 -35.5v-425h182z" />
    <glyph glyph-name="AEacute" unicode="&#x1fc;" horiz-adv-x="474" 
d="M314 116h-96v-70h207v-46h-254v116h-82v-116h-48v587q0 29 11 54.5t30 44t44 29.5t54 11h190v-47h-152v-517h96v-46zM171 162v517q-35 -3 -58.5 -30t-23.5 -62v-425h82zM228 759h-50l62 162h48z" />
    <glyph glyph-name="Cacute" unicode="&#x106;" horiz-adv-x="365" 
d="M180 -14q-29 0 -54 11t-44.5 29.5t-30.5 44t-11 54.5v462q0 29 11 54.5t30.5 44t44.5 29.5t54 11t54.5 -12t44 -32t29.5 -47t11 -58h-48q0 21 -7 39.5t-19.5 32.5t-29 22t-35.5 8t-36 -7.5t-29.5 -20t-19.5 -29t-7 -35.5v-462q0 -19 7 -35.5t19.5 -29t29.5 -20t36 -7.5
t35.5 8t29 22t19.5 32.5t7 39.5h48q0 -31 -11 -58t-29.5 -47.5t-44 -32t-54.5 -11.5zM198 759h-50l62 162h48z" />
    <glyph glyph-name="Ccaron" unicode="&#x10c;" 
d="M180 -14q-28 0 -53.5 11t-44.5 29.5t-30 44t-11 54.5v462q0 29 11 54.5t30 44t44.5 29.5t53.5 11q29 0 54.5 -12t44.5 -32t30 -47t11 -58h-48q0 21 -7 39.5t-19.5 32.5t-29.5 22t-36 8q-38 0 -64.5 -27t-26.5 -65v-462q0 -38 26.5 -65t64.5 -27q19 0 36 8t29.5 22
t19.5 32.5t7 39.5h48q0 -31 -11 -58t-30 -47.5t-44.5 -32t-54.5 -11.5zM89 917l92 -112l93 112h61l-130 -158h-46l-133 158h63z" />
    <glyph glyph-name="Dcaron" unicode="&#x10e;" horiz-adv-x="472" 
d="M156 0v333h-114v46h114v333h133q28 0 52.5 -10.5t43 -28.5t29 -42.5t10.5 -52.5v-444q0 -28 -10.5 -52.5t-29 -42.5t-43 -28.5t-52.5 -10.5h-133zM321 333h-117v-287h85q18 0 34.5 7t28.5 19t19 28t7 34v444q0 18 -7 34t-19 28t-28.5 19t-34.5 7h-85v-287h117v-46z
M198 917l92 -112l93 112h61l-130 -158h-46l-133 158h63z" />
    <glyph glyph-name="Dcroat" unicode="&#x110;" horiz-adv-x="472" 
d="M156 0v333h-114v46h114v333h133q28 0 52.5 -10.5t42.5 -28.5t28.5 -42.5t10.5 -52.5v-444q0 -28 -10.5 -52.5t-28.5 -42.5t-42.5 -28.5t-52.5 -10.5h-133zM321 333h-117v-287h85q18 0 34.5 7t28.5 19t19 28t7 34v444q0 18 -7 34t-19 28t-28.5 19t-34.5 7h-85v-287h117
v-46z" />
    <glyph glyph-name="Ebreve" unicode="&#x114;" horiz-adv-x="342" 
d="M185 116h-96v-70h207v-46h-255v712h200v-46h-152v-504h96v-46zM70 859q2 -16 11 -27q8 -11 21.5 -19t37.5 -8t38 8t22 19q9 11 11 27h37q0 -24 -9.5 -42.5t-25 -31t-35 -19.5t-38.5 -7q-18 0 -37 6.5t-34.5 19t-25.5 31.5t-10 43h37z" />
    <glyph glyph-name="Ecaron" unicode="&#x11a;" horiz-adv-x="342" 
d="M185 116h-96v-70h207v-46h-255v712h199v-46h-151v-504h96v-46zM49 917l92 -112l92 112h62l-131 -158h-45l-134 158h64z" />
    <glyph glyph-name="Eogonek" unicode="&#x118;" horiz-adv-x="342" 
d="M185 116h-96v-70h207v-46h-85l68 -142h-67l-51 142h-120v712h200v-46h-152v-504h96v-46z" />
    <glyph glyph-name="Gbreve" unicode="&#x11e;" 
d="M180 -14q-28 0 -53.5 11t-44.5 29.5t-30 44t-11 54.5v462q0 29 11 54.5t30 44t44.5 29.5t53.5 11q29 0 54.5 -12t44.5 -32t30 -47t11 -58h-48q0 21 -7 39.5t-19.5 32.5t-29.5 22t-36 8q-38 0 -64.5 -27t-26.5 -65v-462q0 -38 26.5 -65t64.5 -27q36 0 62.5 24t29.5 59
h-159v46h207v-37q0 -29 -11 -54.5t-30 -44t-44.5 -29.5t-54.5 -11zM110 859q2 -16 11 -27q8 -11 21.5 -19t37.5 -8t38 8t22 19q9 11 12 27h36q0 -24 -9.5 -43t-25 -31.5t-35 -19t-38.5 -6.5q-18 0 -37 6.5t-34.5 19.5t-25 31.5t-9.5 42.5h36z" />
    <glyph glyph-name="Hbar" unicode="&#x126;" horiz-adv-x="468" 
d="M420 627h-50v-627h-48v550h-183v-550h-47v627h-50v47h50v38h47v-38h183v38h48v-38h50v-47zM322 627h-183v-31h183v31z" />
    <glyph glyph-name="Ibreve" unicode="&#x12c;" horiz-adv-x="129" 
d="M87 0h-47v712h47v-712zM-8 859q2 -16 11 -27q8 -11 21.5 -19t37.5 -8t37.5 8t21.5 19q9 11 12 27h37q0 -24 -9.5 -42.5t-25 -31t-35 -19.5t-38.5 -7q-18 0 -37 7t-34.5 19.5t-25.5 31t-10 42.5h37z" />
    <glyph glyph-name="Itilde" unicode="&#x128;" horiz-adv-x="127" 
d="M86 0h-47v712h47v-712zM101 759q-12 0 -23.5 4.5t-20.5 9.5q-8 5 -17 9.5t-17 4.5q-5 0 -10 -3t-10 -7t-10 -9l-39 18q9 12 20 23q9 9 22 16.5t27 7.5q17 0 28 -5.5t21 -11.5q7 -5 13.5 -8t15.5 -3q11 0 22 9q5 4 11 9l35 -18q-11 -13 -22 -23q-10 -9 -22 -16t-24 -7z
" />
    <glyph glyph-name="cacute" unicode="&#x107;" horiz-adv-x="369" 
d="M180 -13q-29 0 -54 10.5t-43.5 29.5t-29.5 44t-11 54v231q0 29 11 54.5t29.5 44t43.5 29.5t54 11t54.5 -11.5t44.5 -31.5t30 -47t11 -58h-47q0 21 -7.5 39.5t-20 32.5t-29.5 22t-36 8t-35.5 -7.5t-29 -20t-19.5 -29.5t-7 -36v-231q0 -19 7 -36t19.5 -29.5t29 -19.5
t35.5 -7t36 8t29.5 21.5t20 31.5t7.5 39h47q0 -30 -11 -57t-30 -46.5t-44.5 -31t-54.5 -11.5zM200 542h-49l60 160h48z" />
    <glyph glyph-name="ccaron" unicode="&#x10d;" horiz-adv-x="369" 
d="M180 -13q-29 0 -54 10.5t-43.5 29.5t-29.5 44t-11 54v231q0 29 11 54.5t29.5 44t43.5 29.5t54 11t54.5 -11.5t44.5 -31.5t30 -47t11 -58h-47q0 21 -7.5 39.5t-20 32.5t-29.5 22t-36 8t-35.5 -7.5t-29 -20t-19.5 -29.5t-7 -36v-231q0 -19 7 -36t19.5 -29.5t29 -19.5
t35.5 -7t36 8t29.5 21.5t20 31.5t7.5 39h47q0 -30 -11 -57t-30 -46.5t-44.5 -31t-54.5 -11.5zM90 698l91 -110l92 110h60l-129 -156h-45l-131 156h62z" />
    <glyph glyph-name="ccircumflex" unicode="&#x109;" horiz-adv-x="369" 
d="M180 -13q-29 0 -54 10.5t-43.5 29.5t-29.5 44t-11 54v231q0 29 11 54.5t29.5 44t43.5 29.5t54 11t54.5 -11.5t44.5 -31.5t30 -47t11 -58h-47q0 21 -7.5 39.5t-20 32.5t-29.5 22t-36 8t-35.5 -7.5t-29 -20t-19.5 -29.5t-7 -36v-231q0 -19 7 -36t19.5 -29.5t29 -19.5
t35.5 -7t36 8t29.5 21.5t20 31.5t7.5 39h47q0 -30 -11 -57t-30 -46.5t-44.5 -31t-54.5 -11.5zM28 542l131 157h45l129 -157h-60l-92 111l-91 -111h-62z" />
    <glyph glyph-name="gbreve" unicode="&#x11f;" horiz-adv-x="371" 
d="M181 -246q-24 0 -48.5 7.5t-45 21.5t-33 35t-12.5 47q0 38 30 68q-12 6 -21 19t-9 29t10 29.5t28 19.5q-20 20 -29 42.5t-9 53.5v229q0 30 11 55.5t29.5 44t44 29.5t54.5 11q26 0 50 -9t42 -25v21h48v-356q0 -29 -11 -54t-30 -44t-44.5 -30t-54.5 -11h-86q-6 0 -6 -6
q0 -5 6 -5h86q24 0 48.5 -7.5t45 -22t33.5 -35t13 -46.5q0 -28 -13.5 -48.5t-34 -34.5t-45.5 -21t-47 -7zM181 447q-19 0 -36 -7t-29.5 -19.5t-19.5 -29.5t-7 -36v-229q0 -38 26.5 -64.5t65.5 -28.5q39 1 65.5 28t26.5 65v232q-2 38 -28.5 63.5t-63.5 25.5zM181 -72
q-15 0 -31.5 -4t-30 -11.5t-22 -19.5t-8.5 -28q0 -17 9 -29.5t23 -20t30 -11t30 -3.5q15 0 31.5 4t30 11.5t22 19.5t8.5 29q0 16 -9 28t-23 20t-30 11.5t-30 3.5zM111 640q2 -15 11 -26q7 -10 21 -18t37 -8q24 0 37.5 8t21.5 18q8 11 11 26h37q0 -24 -9.5 -42t-25 -30.5
t-34.5 -19t-38 -6.5q-18 0 -37 6.5t-34 18.5t-24.5 30.5t-9.5 42.5h36z" />
    <glyph glyph-name="gcircumflex" unicode="&#x11d;" horiz-adv-x="371" 
d="M181 -246q-24 0 -48.5 7.5t-45 21.5t-33 35t-12.5 47q0 38 30 68q-12 6 -21 19t-9 29t10.5 29.5t27.5 19.5q-20 20 -29 42.5t-9 53.5v229q0 30 11 55.5t29.5 44t44 29.5t54.5 11q26 0 50 -9t43 -25v21h48v-356q0 -29 -11 -54t-30 -44t-45 -30t-55 -11h-86q-6 0 -6 -6
q0 -5 6 -5h86q24 0 49 -7.5t45.5 -22t33.5 -35t13 -46.5q0 -28 -13.5 -48.5t-34.5 -34.5t-46 -21t-47 -7zM181 447q-19 0 -36 -7t-29.5 -19.5t-19.5 -29.5t-7 -36v-229q0 -38 26.5 -64.5t65.5 -28.5q39 1 66 28t27 65v232q-2 38 -29 63.5t-64 25.5zM181 -72q-15 0 -31.5 -4
t-30 -11.5t-22 -19.5t-8.5 -28q0 -17 9 -29.5t23 -20t30 -11t30 -3.5q15 0 31.5 4t30 11.5t22.5 19.5t9 29q0 16 -9.5 28t-23.5 20t-30 11.5t-30 3.5zM30 542l131 156h45l129 -156h-61l-91 110l-91 -110h-62z" />
    <glyph glyph-name="wacute" unicode="&#x1e83;" horiz-adv-x="611" 
d="M435 0h-42l-94 374l-94 -374h-42l-121 482h48l94 -373l94 373h42l94 -373l94 373h49zM318 542h-49l61 160h48z" />
    <glyph glyph-name="wcircumflex" unicode="&#x175;" horiz-adv-x="611" 
d="M435 0h-42l-94 374l-94 -374h-42l-121 482h48l94 -373l94 373h42l94 -373l94 373h49zM143 569l132 157h45l129 -157h-61l-91 111l-91 -111h-63z" />
    <glyph glyph-name="wdieresis" unicode="&#x1e85;" horiz-adv-x="611" 
d="M435 0h-42l-94 374l-94 -374h-42l-121 482h48l94 -373l94 373h42l94 -373l94 373h49zM245 542q-12 0 -22 10t-10 21q0 13 10 23t22 10q14 0 22.5 -10t8.5 -23q0 -11 -8.5 -21t-22.5 -10zM356 542q-14 0 -23.5 10t-9.5 21q0 13 9.5 23t23.5 10q11 0 20.5 -10t9.5 -23
q0 -11 -9.5 -21t-20.5 -10z" />
    <glyph glyph-name="wgrave" unicode="&#x1e81;" horiz-adv-x="611" 
d="M435 0h-42l-94 374l-94 -374h-42l-121 482h48l94 -373l94 373h42l94 -373l94 373h49zM223 702h48l61 -160h-49z" />
    <glyph glyph-name="ycircumflex" unicode="&#x177;" horiz-adv-x="377" 
d="M208 8v-254h-47v254l-122 474h50l96 -383l95 383h50zM32 542l131 157h45l129 -157h-61l-91 111l-91 -111h-62z" />
    <glyph glyph-name="zacute" unicode="&#x17a;" horiz-adv-x="372" 
d="M301 0h-265l218 437h-191v45h265l-219 -437h192v-45zM201 542h-48l60 161h48z" />
    <glyph glyph-name="ygrave" unicode="&#x1ef3;" horiz-adv-x="377" 
d="M208 8v-254h-47v254l-122 474h50l96 -383l95 383h50zM106 702h48l61 -160h-49z" />
    <glyph glyph-name="multiply" unicode="&#xd7;" horiz-adv-x="307" 
d="M233 158l-83 82l-82 -82l-31 33l81 82l-80 80l32 32l80 -80q19 20 41 41t40 40l32 -33l-80 -80l82 -82z" />
    <glyph glyph-name="copyright" unicode="&#xa9;" horiz-adv-x="612" 
d="M300 -13q-53 0 -99.5 20.5t-81 55.5t-54.5 81t-20 97q0 55 21.5 101.5t56.5 80.5t81 53t96 19q54 0 100.5 -20.5t81 -55.5t54 -81t19.5 -97q0 -55 -21.5 -101.5t-57 -80.5t-81.5 -53t-95 -19zM300 449q-43 0 -80.5 -16.5t-66 -45t-45 -66t-16.5 -80.5t16.5 -80.5t45 -66
t66 -45t80.5 -16.5t80.5 16.5t66 45t45 66t16.5 80.5t-16.5 80.5t-45 66t-66 45t-80.5 16.5zM298 71q-29 0 -54 11t-44 29.5t-29.5 43.5t-10.5 54v65q0 29 10.5 54.5t29.5 44t44 29.5t54 11t54.5 -11.5t44 -32t29.5 -47.5t11 -58h-46q0 21 -7.5 40t-20 33t-29.5 22t-36 8
t-35.5 -7.5t-29 -20t-19.5 -29.5t-7 -36v-65q0 -19 7 -36t19.5 -29.5t29 -19.5t35.5 -7t36 8t29.5 21.5t20 32t7.5 39.5h46q0 -31 -11 -57.5t-29.5 -46.5t-44 -31.5t-54.5 -11.5z" />
    <glyph glyph-name="registered" unicode="&#xae;" horiz-adv-x="612" 
d="M300 -13q-53 0 -99.5 20.5t-81 55.5t-54.5 81t-20 97q0 55 21.5 101.5t56.5 80.5t81 53t96 19q54 0 100.5 -20.5t81 -55.5t54 -81t19.5 -97q0 -55 -21.5 -101.5t-57 -80.5t-81.5 -53t-95 -19zM362 71l-54 61h-78v-61h-47v341q-42 -28 -66.5 -72.5t-24.5 -98.5
q0 -43 16.5 -80.5t45 -66t66 -45t80.5 -16.5q33 0 63 10t56 28h-57zM230 178h90q38 0 64 19.5t26 56.5v23q0 37 -26 64t-64 27h-90v-190zM300 449q-32 0 -61.5 -9.5t-54.5 -26.5h136q28 0 53 -11t43.5 -30t29.5 -43.5t11 -52.5v-22q0 -45 -25.5 -74.5t-65.5 -42.5l57 -63
q38 29 61.5 72.5t23.5 94.5q0 43 -16.5 80.5t-45 66t-66 45t-80.5 16.5z" />
    <glyph glyph-name="paragraph" unicode="&#xb6;" horiz-adv-x="576" 
d="M272 288h-90q-28 0 -53 10.5t-44 29.5t-30 43.5t-11 53.5v141q0 28 11 52.5t30 43.5t44 30t53 11h365v-45h-100v-658h-47v658h-81v-658h-47v288z" />
    <glyph glyph-name="ydieresis" unicode="&#xff;" horiz-adv-x="377" 
d="M208 8v-254h-47v254l-122 474h50l96 -383l95 383h50zM129 542q-13 0 -22.5 9.5t-9.5 20.5q0 14 9.5 23.5t22.5 9.5q14 0 22 -9.5t8 -23.5q0 -11 -8 -20.5t-22 -9.5zM239 542q-13 0 -23 9.5t-10 20.5q0 14 10 23.5t23 9.5q11 0 21 -9.5t10 -23.5q0 -11 -10 -20.5t-21 -9.5
z" />
    <glyph glyph-name="questiondown" unicode="&#xbf;" horiz-adv-x="372" 
d="M158 385h47v-93q-53 0 -84.5 -27.5t-31.5 -66.5v-292q0 -20 7.5 -37t20 -29.5t29.5 -20t36 -7.5t36 8t29.5 22.5t20 33.5t7.5 40h47q0 -31 -11 -58.5t-30 -47.5t-44.5 -32t-54.5 -12t-54.5 11t-44.5 30t-30 44.5t-11 54.5v292q0 26 9 49.5t24.5 42t37 31t45.5 16.5v48z
M214 451q0 -13 -9.5 -22.5t-21.5 -9.5q-13 0 -22.5 9.5t-9.5 22.5q0 12 9.5 21.5t22.5 9.5q12 0 21.5 -9.5t9.5 -21.5z" />
    <glyph glyph-name="germandbls" unicode="&#xdf;" 
d="M270 81q0 14 -10 23.5t-24 9.5h-66v46q21 0 39 7.5t31.5 20t21.5 29t8 35.5v323q0 38 -26.5 65t-64.5 27h-90v-667h-47v712h137q29 0 54 -11t44 -30t29.5 -43.5t10.5 -52.5v-323q0 -29 -12 -55t-31 -45q18 -11 30.5 -30.5t12.5 -40.5q0 -17 -6.5 -31.5t-17.5 -25.5
t-25.5 -17.5t-30.5 -6.5h-67v45h66q14 0 24 10.5t10 25.5z" />
    <glyph glyph-name="mu" unicode="&#xb5;" horiz-adv-x="370" 
d="M181 -13q-26 0 -49.5 9.5t-42.5 25.5v-268h-47v728h47v-356q0 -19 7 -36t19.5 -29.5t29.5 -20t36 -7.5t36 7.5t29.5 20t19.5 29.5t7 36v356h48v-356q0 -29 -11 -54t-30 -44t-44.5 -30t-54.5 -11z" />
    <glyph glyph-name="mu" unicode="&#x3bc;" horiz-adv-x="370" 
d="M181 -13q-26 0 -49.5 9.5t-42.5 25.5v-268h-47v728h47v-356q0 -19 7 -36t19.5 -29.5t29.5 -20t36 -7.5t36 7.5t29.5 20t19.5 29.5t7 36v356h48v-356q0 -29 -11 -54t-30 -44t-44.5 -30t-54.5 -11z" />
    <glyph glyph-name="plusminus" unicode="&#xb1;" horiz-adv-x="367" 
d="M157 74v117h-115v46h115v113h46v-113h115v-46h-115v-117h-46zM318 0h-276v46h276v-46z" />
    <glyph glyph-name="onehalf" unicode="&#xbd;" horiz-adv-x="699" 
d="M640 0h-275v34q0 30 11.5 49.5t29.5 32.5t41 21l46 16q18 6 35.5 11.5t31 14t21.5 19.5t8 28q0 37 -21 63t-69 26q-37 0 -62.5 -28.5t-25.5 -70.5h-46q1 30 12 56.5t29 46t42 31t51 11.5q34 0 60 -10.5t42.5 -29t25 -43t8.5 -52.5q0 -30 -11.5 -49.5t-29.5 -32.5
t-40.5 -20.5t-44.5 -13.5q-17 -5 -33.5 -10t-30 -12t-22.5 -17.5t-11 -25.5h228v-45zM194 0h-49l258 703h48zM197 342h-47v265l-77 -77l-32 32l156 154v-374z" />
    <glyph glyph-name="onequarter" unicode="&#xbc;" horiz-adv-x="593" 
d="M537 0h-47v62h-196l199 299h44v-361zM490 108v162l-110 -162h110zM196 342h-47v265l-77 -77l-32 32l156 154v-374zM196 0h-49l258 703h48z" />
    <glyph glyph-name="threequarters" unicode="&#xbe;" horiz-adv-x="670" 
d="M612 0h-47v62h-196l198 299h45v-361zM182 328q-28 0 -53 11.5t-43.5 32t-29.5 47t-11 56.5h47q0 -20 7 -38.5t19.5 -32.5t29 -22t35.5 -8q18 0 34.5 7.5t29 20.5t19.5 29.5t7 34.5q0 29 -12.5 44.5t-33.5 22.5t-50 8t-62 1v47h124q14 0 24 9.5t10 23.5t-10 25t-24 11
h-180v45h180q34 0 57.5 -23.5t23.5 -57.5q0 -24 -10.5 -39.5t-21.5 -22.5q10 -10 21 -31.5t11 -62.5q0 -28 -11 -53t-30 -44t-44 -30t-53 -11zM565 108v162l-110 -162h110zM265 0h-49l258 703h48z" />
    <glyph glyph-name="ampersand" unicode="&#x26;" horiz-adv-x="403" 
d="M180 551q-38 0 -64.5 -26.5t-26.5 -64.5v-323q0 -19 7 -36t19.5 -29.5t29 -19.5t35.5 -7h90v506h-90zM89 631q0 -14 10 -23.5t24 -9.5h147v37h47v-37h36v-47h-36v-551h-137q-29 0 -54 11t-44 29.5t-29.5 43.5t-10.5 53v323q0 29 12 55t31 45q-18 11 -30.5 30t-12.5 41
q0 17 6.5 31.5t17.5 25.5t25.5 17.5t30.5 6.5h78v-45h-77q-14 0 -24 -11t-10 -25z" />
    <glyph glyph-name="asterisk" unicode="*" horiz-adv-x="416" 
d="M346 418l-119 68v-137h-46v137l-119 -68l-22 40l118 68l-118 68l22 41l119 -69v137h46v-137l119 69l22 -41l-118 -68l119 -68z" />
    <glyph glyph-name="onesuperior" unicode="&#xb9;" horiz-adv-x="238" 
d="M192 342h-47v265l-76 -77l-32 32l155 154v-374z" />
    <glyph glyph-name="twosuperior" unicode="&#xb2;" 
d="M317 365h-275v34q0 30 11.5 49.5t29.5 32.5t41 21.5t46 15.5q18 6 35.5 12t31 14t21.5 19.5t8 27.5q0 37 -21 63t-69 26q-37 0 -62.5 -28.5t-25.5 -70.5h-46q1 30 12 56.5t29 46t42 31t51 11.5q34 0 60 -10.5t42.5 -29t25 -43t8.5 -52.5q0 -30 -11.5 -49.5t-29.5 -32
t-40.5 -20t-44.5 -13.5q-17 -5 -33.5 -10t-30 -12.5t-22.5 -18t-11 -25.5h228v-45z" />
    <glyph glyph-name="threesuperior" unicode="&#xb3;" 
d="M179 337q-28 0 -53 11.5t-43.5 32t-29.5 47t-11 56.5h47q0 -20 7 -38.5t19.5 -32.5t29 -22t35.5 -8q18 0 34.5 7.5t29 20.5t19.5 29.5t7 34.5q0 29 -12.5 44.5t-33.5 22.5t-50 8t-62 1v47h124q14 0 24 9.5t10 23.5t-10 25t-24 11h-181v45h181q34 0 57.5 -23.5t23.5 -57.5
q0 -24 -10.5 -39.5t-21.5 -22.5q10 -10 21 -31.5t11 -62.5q0 -28 -11 -53t-30 -44t-44 -30t-53 -11z" />
    <glyph glyph-name="degree" unicode="&#xb0;" horiz-adv-x="414" 
d="M363 549q0 -33 -12.5 -62.5t-34 -51t-51 -34t-62.5 -12.5t-62.5 12.5t-51 34t-34 51t-12.5 62.5q0 34 12.5 63t34 51t51 34.5t62.5 12.5t62.5 -12.5t51 -34.5t34 -51t12.5 -63zM316 549q0 25 -9 46t-24 36.5t-36 24.5t-45 9t-44.5 -9t-35.5 -24.5t-23.5 -36.5t-8.5 -46
t8.5 -46t24 -36.5t36 -24.5t44.5 -9t44.5 9t36 24.5t24 36.5t8.5 46z" />
    <glyph glyph-name="ordmasculine" unicode="&#xba;" 
d="M179 328q-28 0 -53 11t-43.5 30t-29.5 44t-11 53v113q0 28 11 53t29.5 43.5t43.5 29.5t53 11t53 -11t44 -29.5t30 -43.5t11 -53v-113q0 -28 -11 -53t-30 -44t-44 -30t-53 -11zM179 670q-38 0 -64 -26t-26 -64v-115q0 -38 26 -64.5t64 -26.5t64.5 26.5t26.5 64.5v115
q0 38 -26.5 64t-64.5 26z" />
    <glyph glyph-name="section" unicode="&#xa7;" horiz-adv-x="365" 
d="M43 582q0 28 10.5 52.5t29 42.5t43 28.5t51.5 10.5q28 0 52.5 -11.5t43 -31t29 -45.5t10.5 -56h-45q0 21 -7 38.5t-19.5 31t-29 21t-34.5 7.5q-37 0 -62.5 -25.5t-25.5 -62.5v-185q38 33 90 33q28 0 53 -11t44 -29.5t30 -43.5t11 -53l-1 -384q0 -28 -11 -52.5t-29.5 -43
t-43 -29t-51.5 -10.5q-28 0 -52.5 11.5t-42.5 31t-28.5 45.5t-10.5 56h45q0 -20 7 -38t19 -31.5t28.5 -21t34.5 -7.5q37 0 63 26t26 63v186q-18 -15 -41.5 -25t-49.5 -10q-28 0 -53 11t-43.5 30t-29.5 44t-11 53v100zM179 384q-38 0 -64 -26t-26 -64v-97q0 -38 26 -64
t64 -26t64.5 26t26.5 64v97q0 38 -26.5 64t-64.5 26z" />
    <glyph glyph-name="logicalnot" unicode="&#xac;" horiz-adv-x="508" 
d="M408 102v148h-365v46h411v-194h-46z" />
    <glyph glyph-name="periodcentered" unicode="&#xb7;" horiz-adv-x="173" 
d="M41 261q0 20 13 33t30 13q20 0 33 -13t13 -33q0 -17 -13 -30t-33 -13q-17 0 -30 13t-13 30z" />
    <glyph glyph-name="Ygrave" unicode="&#x1ef2;" 
d="M204 122v-122h-47v122l-118 590h48l93 -464q11 55 23.5 114t24.5 118.5t23.5 118.5t22.5 113h48zM101 921h48l62 -162h-50z" />
    <glyph glyph-name="Wacute" unicode="&#x1e82;" horiz-adv-x="604" 
d="M436 0h-45l-93 560l-94 -560h-44l-119 712h49l92 -558l94 558h44l94 -557l92 557h49zM318 759h-49l61 162h49z" />
    <glyph glyph-name="Wgrave" unicode="&#x1e80;" horiz-adv-x="604" 
d="M436 0h-45l-93 560l-94 -560h-44l-119 712h49l92 -558l94 558h44l94 -557l92 557h49zM217 921h49l61 -162h-50z" />
    <glyph glyph-name="Zacute" unicode="&#x179;" horiz-adv-x="377" 
d="M311 0h-272l229 666h-207v46h273l-231 -666h208v-46zM204 759h-50l62 162h48z" />
    <glyph glyph-name="Sacute" unicode="&#x15a;" horiz-adv-x="360" 
d="M55 0v46h177q14 0 24.5 10t11.5 25q-1 14 -11.5 24.5t-24.5 10.5h-54q-28 0 -53 10.5t-43.5 28.5t-29.5 42.5t-11 53.5l1 338q0 28 10.5 53t29 44t43 29.5t53.5 10.5q28 0 53 -11.5t43.5 -31.5t29 -46.5t10.5 -56.5h-46q0 21 -7 39t-19.5 31.5t-29 21t-34.5 7.5
q-38 0 -64 -26t-26 -64v-338q0 -37 26 -63t64 -26h54q33 0 57.5 -23.5t24.5 -57.5q0 -33 -24.5 -57t-57.5 -24h-177zM197 759h-50l62 162h48z" />
    <glyph glyph-name="Lacute" unicode="&#x139;" horiz-adv-x="352" 
d="M306 0h-265v712h48v-666h217v-46zM84 759h-50l62 162h48z" />
    <glyph glyph-name="Racute" unicode="&#x154;" 
d="M273 0l-103 116h-81v-116h-47v712h139q28 0 53.5 -11t44.5 -30t30 -44.5t11 -53.5v-333q0 -45 -26 -75.5t-67 -42.5l109 -122h-63zM89 162h92q38 0 64.5 20.5t26.5 57.5v334q0 38 -26.5 65t-64.5 27h-92v-504zM179 759h-50l61 162h49z" />
    <glyph glyph-name="aeacute" unicode="&#x1fd;" horiz-adv-x="611" 
d="M540 0h-125q-26 0 -50 8.5t-42 25.5v-34h-47v21q-19 -16 -43 -25t-49 -9q-29 0 -54.5 10.5t-44.5 29.5t-30 44t-11 54v81q0 29 11 54.5t30 44.5t44.5 30t54.5 11q25 0 49 -10t43 -26v55q0 16 -8 31t-21 27t-29.5 19t-33.5 7h-92v46h92q38 0 67 -16.5t48 -45.5
q19 29 48.5 45.5t67.5 16.5q28 0 53.5 -11t44.5 -29.5t30 -44t11 -54.5v-242h-228q8 -29 32.5 -49t56.5 -20h125v-45zM323 160h184v196q0 19 -7 36t-19.5 29.5t-29.5 20t-36 7.5t-36 -7.5t-29.5 -20t-19.5 -29.5t-7 -36v-196zM184 300q-19 0 -36 -7.5t-29.5 -20.5t-19.5 -30
t-7 -36v-81q0 -19 7 -36t19.5 -29.5t29.5 -19.5t36 -7t36 7t29.5 19.5t19.5 29.5t7 36v81q0 19 -7 36t-19.5 30t-29.5 20.5t-36 7.5zM318 542h-49l61 160h48z" />
    <glyph glyph-name="ecaron" unicode="&#x11b;" horiz-adv-x="370" 
d="M306 0h-125q-29 0 -54.5 11t-44 30t-29.5 44t-11 54v217q0 29 11 54.5t29.5 44t44 29.5t54.5 11q28 0 53.5 -11t45 -29.5t30.5 -44t11 -54.5v-242h-229q8 -29 32.5 -49t56.5 -20h125v-45zM89 160h184v196q0 19 -7 36t-19.5 29.5t-29.5 20t-36 7.5t-36 -7.5t-29.5 -20
t-19.5 -29.5t-7 -36v-196zM91 699l91 -110l91 110h61l-129 -157h-45l-131 157h62z" />
    <glyph glyph-name="ebreve" unicode="&#x115;" horiz-adv-x="370" 
d="M306 0h-125q-29 0 -54.5 11t-44 30t-29.5 44t-11 54v217q0 29 11 54.5t29.5 44t44 29.5t54.5 11q28 0 53.5 -11t45 -29.5t30.5 -44t11 -54.5v-242h-229q8 -29 32.5 -49t56.5 -20h125v-45zM89 160h184v196q0 19 -7 36t-19.5 29.5t-29.5 20t-36 7.5t-36 -7.5t-29.5 -20
t-19.5 -29.5t-7 -36v-196zM112 640q2 -15 11 -26q7 -10 21 -18t37 -8q24 0 37.5 8t21.5 18q8 11 11 26h36q3 -23 -6 -41.5t-25 -31t-36 -19t-39 -6.5q-18 0 -38 6.5t-36 19t-24.5 31t-5.5 41.5h35z" />
    <glyph glyph-name="itilde" unicode="&#x129;" horiz-adv-x="280" 
d="M233 -13q-19 0 -35.5 6.5t-29 17.5t-19.5 25.5t-7 31.5v368h-101v46h148v-414q0 -14 13 -24t31 -10v-47zM177 542q-12 0 -23.5 4.5t-20.5 9.5q-8 5 -17 9t-16 4q-5 0 -10 -3l-10 -6q-5 -4 -10 -9l-38 17q9 12 20 23q9 9 21.5 16.5t26.5 7.5q16 0 27 -5.5t21 -11.5
q13 -10 29 -10q5 0 10.5 2.5t10.5 5.5q5 4 11 9l35 -17q-11 -13 -22 -23q-10 -9 -21.5 -16t-23.5 -7z" />
    <glyph glyph-name="jcircumflex" unicode="&#x135;" horiz-adv-x="129" 
d="M-4 -199q18 0 31 10.5t13 24.5v646h47v-646q0 -17 -7.5 -31.5t-20 -26t-29 -18t-34.5 -6.5v47zM-90 542l132 156h45l128 -156h-60l-91 110l-92 -110h-62z" />
    <glyph glyph-name="lacute" unicode="&#x13a;" horiz-adv-x="175" 
d="M132 0h-47v637q0 14 -13 23.5t-31 9.5v46q19 0 35.5 -6.5t29 -17t19.5 -25t7 -30.5v-637zM129 749h-49l61 160h48z" />
    <glyph glyph-name="nacute" unicode="&#x144;" horiz-adv-x="370" 
d="M321 0h-48v357q0 19 -7 36t-19.5 29.5t-29.5 19.5t-36 7t-36 -7t-29.5 -19.5t-19.5 -29.5t-7 -36v-357h-47v482h47v-22q19 17 42.5 26t49.5 9q29 0 54.5 -10.5t44.5 -29.5t30 -44t11 -54v-357zM201 542h-48l60 161h48z" />
    <glyph glyph-name="ncaron" unicode="&#x148;" horiz-adv-x="370" 
d="M321 0h-47v357q0 19 -7.5 36t-20 29.5t-29.5 19.5t-36 7t-36 -7t-29.5 -19.5t-19.5 -29.5t-7 -36v-357h-47v482h47v-22q19 17 42.5 26t49.5 9q29 0 54.5 -10.5t44.5 -29.5t30 -44t11 -54v-357zM92 698l91 -110l91 110h61l-129 -156h-45l-131 156h62z" />
    <glyph glyph-name="obreve" unicode="&#x14f;" 
d="M111 642q2 -15 11 -26q7 -10 21 -18t37 -8q24 0 37.5 8t21.5 18q8 11 11 26h37q0 -24 -9.5 -42t-25 -31t-34.5 -19.5t-38 -6.5q-18 0 -37 6.5t-34 19.5t-24.5 31t-9.5 42h36zM179 -13q-28 0 -53 11t-43.5 29.5t-29.5 43.5t-11 53v234q0 28 11 53t29.5 43.5t43.5 29.5
t53 11t53 -11t44 -29.5t30 -43.5t11 -53v-234q0 -28 -11 -53t-30 -43.5t-44 -29.5t-53 -11zM179 449q-38 0 -64 -26t-26 -64v-236q0 -38 26 -64t64 -26t64.5 26t26.5 64v236q0 38 -26.5 64t-64.5 26z" />
    <glyph glyph-name="racute" unicode="&#x155;" horiz-adv-x="235" 
d="M190 449q-20 0 -38 -6.5t-32 -18.5t-22.5 -27.5t-9.5 -33.5v-363h-47v482h47v-22q19 16 45 25.5t57 9.5v-46zM132 542h-49l60 160h49z" />
    <glyph glyph-name="rcaron" unicode="&#x159;" horiz-adv-x="235" 
d="M190 449q-20 0 -38 -6.5t-32 -18.5t-22.5 -27.5t-9.5 -33.5v-363h-47v482h47v-22q19 16 45 25.5t57 9.5v-46zM24 698l92 -110l91 110h60l-128 -156h-45l-132 156h62z" />
    <glyph glyph-name="sacute" unicode="&#x15b;" horiz-adv-x="370" 
d="M56 0v45h181q15 0 25.5 10.5t10.5 25.5q0 14 -10.5 23.5t-25.5 9.5h-56q-29 0 -54.5 11t-44 29.5t-29.5 44t-11 54.5v104q0 29 11 54t29.5 44t44 29.5t54.5 10.5q28 0 53.5 -11.5t45 -31.5t30.5 -47t11 -57h-48q0 21 -7 39t-19.5 32t-29.5 22t-36 8t-36 -7t-29.5 -19.5
t-19.5 -29.5t-7 -36v-104q0 -19 7 -36t19.5 -29.5t29.5 -20t36 -7.5h56q33 0 58 -21.5t26 -57.5q-1 -35 -26 -58t-58 -23h-181zM201 542h-48l60 160h48z" />
    <glyph glyph-name="scircumflex" unicode="&#x15d;" horiz-adv-x="370" 
d="M56 0v45h181q15 0 25.5 10.5t10.5 25.5q0 14 -10.5 23.5t-25.5 9.5h-56q-29 0 -54.5 11t-44 29.5t-29.5 44t-11 54.5v104q0 29 11 54t29.5 44t44 29.5t54.5 10.5q28 0 53.5 -11.5t45 -31.5t30.5 -47t11 -57h-48q0 21 -7 39t-19.5 32t-29.5 22t-36 8t-36 -7t-29.5 -19.5
t-19.5 -29.5t-7 -36v-104q0 -19 7 -36t19.5 -29.5t29.5 -20t36 -7.5h56q33 0 58 -21.5t26 -57.5q-1 -35 -26 -58t-58 -23h-181zM29 542l131 156h45l129 -156h-61l-91 110l-91 -110h-62z" />
    <glyph glyph-name="ubreve" unicode="&#x16d;" horiz-adv-x="370" 
d="M181 -13q-29 0 -54 11t-44 30t-30 44t-11 54v356h47v-356q0 -19 7 -36t19.5 -29.5t29.5 -20t36 -7.5t36 7.5t29.5 20t19.5 29.5t7 36v356h48v-356q0 -29 -11 -54t-30 -44t-44.5 -30t-54.5 -11zM113 640q2 -15 11 -26q7 -10 21 -18t37 -8q24 0 37.5 8t21.5 18q8 11 11 26
h37q0 -26 -9.5 -44.5t-25 -30.5t-34.5 -17.5t-38 -5.5q-18 0 -37 6.5t-34 18.5t-24.5 30.5t-9.5 42.5h36z" />
    <glyph glyph-name="uring" unicode="&#x16f;" horiz-adv-x="370" 
d="M181 -13q-29 0 -54 11t-44 30t-30 44t-11 54v356h47v-356q0 -19 7 -36t19.5 -29.5t29.5 -20t36 -7.5t36 7.5t29.5 20t19.5 29.5t7 36v356h48v-356q0 -29 -11 -54t-30 -44t-44.5 -30t-54.5 -11zM97 627q0 34 24.5 59t58.5 25q18 0 33 -7t26.5 -18.5t18 -26.5t6.5 -32
q0 -35 -24.5 -60t-59.5 -25q-17 0 -32 6.5t-26.5 18t-18 27t-6.5 33.5zM143 627q0 -16 11 -27t26 -11q16 0 27.5 11t11.5 27q0 15 -11.5 26t-27.5 11q-15 0 -26 -11t-11 -26z" />
    <glyph glyph-name="utilde" unicode="&#x169;" horiz-adv-x="370" 
d="M181 -13q-29 0 -54 11t-44 30t-30 44t-11 54v356h47v-356q0 -19 7 -36t19.5 -29.5t29.5 -20t36 -7.5t36 7.5t29.5 20t19.5 29.5t7 36v356h48v-356q0 -29 -11 -54t-30 -44t-44.5 -30t-54.5 -11zM220 542q-12 0 -23.5 4.5t-19.5 9.5t-17 9t-17 4q-5 0 -10 -3l-10 -6
q-5 -4 -10 -9l-38 17q9 12 20 23q9 9 21.5 16.5t26.5 7.5q16 0 27 -5.5t21 -11.5q7 -5 13.5 -7.5t15.5 -2.5q5 0 10.5 2.5t10.5 5.5q5 4 11 9l35 -17q-11 -13 -22 -23q-10 -9 -21.5 -16t-23.5 -7z" />
    <glyph glyph-name="Lcaron" unicode="&#x13d;" horiz-adv-x="352" 
d="M-29 917l93 -112l92 112h61l-130 -158h-46l-133 158h63zM305 0h-265v712h48v-666h217v-46z" />
    <glyph glyph-name="Nacute" unicode="&#x143;" 
d="M275 0l-186 557v-557h-48v712h45l186 -555v555h48v-712h-45zM200 759h-50l62 162h48z" />
    <glyph glyph-name="Ncaron" unicode="&#x147;" 
d="M275 0l-186 557v-557h-48v712h45l186 -555v555h48v-712h-45zM88 917l92 -112l93 112h61l-130 -158h-46l-133 158h63z" />
    <glyph glyph-name="Obreve" unicode="&#x14e;" 
d="M111 859q2 -16 11 -27q8 -11 21.5 -19t37.5 -8t38 8t22 19q9 11 11 27h37q0 -24 -9.5 -42.5t-25 -31t-35 -19.5t-38.5 -7q-18 0 -37 6.5t-34.5 19.5t-25.5 31.5t-10 42.5h37zM180 -14q-28 0 -53.5 11t-44.5 30t-30 44.5t-11 53.5v462q0 28 11 53.5t30 44.5t44.5 30
t53.5 11t53.5 -11t45 -30t30.5 -44.5t11 -53.5v-462q0 -28 -11 -53.5t-30.5 -44.5t-45 -30t-53.5 -11zM180 679q-19 0 -35.5 -7t-29 -19.5t-19.5 -29.5t-7 -36v-462q0 -19 7 -36t19.5 -29.5t29 -19.5t35.5 -7t36 7t29.5 19.5t19.5 29.5t7 36v462q0 19 -7 36t-19.5 29.5
t-29.5 19.5t-36 7z" />
    <glyph glyph-name="Rcaron" unicode="&#x158;" 
d="M273 0l-103 116h-81v-116h-48v712h140q28 0 53.5 -11t44.5 -30t30 -44.5t11 -53.5v-333q0 -45 -26 -75.5t-67 -42.5l109 -122h-63zM89 162h92q38 0 64.5 20.5t26.5 57.5v334q0 38 -26.5 65t-64.5 27h-92v-504zM91 917l92 -112l93 112h61l-130 -158h-46l-133 158h63z" />
    <glyph glyph-name="Tcaron" unicode="&#x164;" horiz-adv-x="337" 
d="M291 666h-101v-666h-48v666h-101v46h250v-46zM74 917l93 -112l92 112h61l-130 -158h-46l-133 158h63z" />
    <glyph glyph-name="Ubreve" unicode="&#x16c;" 
d="M180 -14q-28 0 -53.5 11t-44.5 29.5t-30 44t-11 54.5v587h48v-587q0 -38 26.5 -65t64.5 -27q19 0 36 7.5t29.5 20t19.5 29t7 35.5v587h48v-587q0 -29 -11 -54.5t-30.5 -44t-45 -29.5t-53.5 -11zM110 859q2 -16 11 -27q8 -11 21.5 -19t37.5 -8t38 8t22 19q9 11 12 27h36
q0 -24 -9.5 -43t-25 -31.5t-35 -19t-38.5 -6.5q-18 0 -37 6.5t-34.5 19.5t-25 31.5t-9.5 42.5h36z" />
    <glyph glyph-name="Uogonek" unicode="&#x172;" 
d="M41 712h48v-587q0 -38 26.5 -65t64.5 -27q19 0 36 7.5t29.5 20t19.5 29t7 35.5v587h48v-587q0 -51 -31.5 -88.5t-78.5 -47.5q15 -33 33.5 -71.5t33.5 -70.5h-65l-52 141q-25 4 -46.5 16.5t-37.5 30.5t-25.5 41t-9.5 49v587z" />
    <glyph glyph-name="Uring" unicode="&#x16e;" 
d="M96 844q0 35 25 60t59 25q36 0 60.5 -25t24.5 -60t-24.5 -60t-60.5 -25q-17 0 -32 6.5t-26.5 18t-18.5 27t-7 33.5zM143 844q0 -16 11 -27.5t26 -11.5q17 0 28 11.5t11 27.5t-11 27t-28 11q-15 0 -26 -11t-11 -27zM180 -14q-28 0 -53.5 11t-44.5 29.5t-30 44t-11 54.5
v587h48v-587q0 -38 26.5 -65t64.5 -27q19 0 36 7.5t29.5 20t19.5 29t7 35.5v587h48v-587q0 -29 -11 -54.5t-30.5 -44t-45 -29.5t-53.5 -11z" />
    <glyph glyph-name="Utilde" unicode="&#x168;" 
d="M180 -14q-28 0 -53.5 11t-44.5 29.5t-30 44t-11 54.5v587h48v-587q0 -38 26.5 -65t64.5 -27q19 0 36 7.5t29.5 20t19.5 29t7 35.5v587h48v-587q0 -29 -11 -54.5t-30.5 -44t-45 -29.5t-53.5 -11zM220 759q-11 0 -23 4.5t-20 9.5t-17.5 9.5t-16.5 4.5q-5 0 -10.5 -3
t-10.5 -7t-10 -9l-38 18q9 12 20 23q9 9 22 16.5t27 7.5q16 0 27.5 -5.5t20.5 -11.5q7 -5 14 -8t15 -3q11 0 22 9q5 4 11 9l35 -18q-11 -13 -22 -23q-10 -9 -22 -16t-24 -7z" />
    <glyph glyph-name="Wdieresis" unicode="&#x1e84;" horiz-adv-x="604" 
d="M436 0h-45l-93 560l-94 -560h-44l-119 712h49l92 -558l94 558h44l94 -557l92 557h49zM242 759q-12 0 -22 9.5t-10 21.5q0 13 10 23t22 10q14 0 23 -10t9 -23q0 -12 -9 -21.5t-23 -9.5zM354 759q-13 0 -23 9.5t-10 21.5q0 13 10 23t23 10q12 0 21.5 -10t9.5 -23
q0 -12 -9.5 -21.5t-21.5 -9.5z" />
    <glyph glyph-name="abreve" unicode="&#x103;" horiz-adv-x="370" 
d="M89 495h92q29 0 54.5 -11t44.5 -30t30 -44.5t11 -53.5v-356h-48v21q-18 -16 -42 -25t-50 -9q-29 0 -54.5 10.5t-44 29.5t-29.5 44t-11 54v81q0 29 11 54.5t29.5 44.5t44 30t54.5 11q26 0 50 -10t42 -26v55q0 16 -8 31t-21 27t-29.5 19t-33.5 7h-92v46zM181 300
q-19 0 -36 -7.5t-29.5 -20.5t-19.5 -30t-7 -36v-81q0 -19 7 -36t19.5 -29.5t29.5 -19.5t36 -7t36 7t29.5 19.5t19.5 29.5t7 36v81q0 19 -7 36t-19.5 30t-29.5 20.5t-36 7.5zM113 640q2 -15 11 -26q7 -10 21 -18t37 -8q24 0 37.5 8t21.5 18q8 11 11 26h37q0 -24 -9.5 -42
t-25 -30.5t-34.5 -19t-38 -6.5q-18 0 -37 6.5t-34 19t-24.5 30.5t-9.5 42h36z" />
    <glyph glyph-name="aogonek" unicode="&#x105;" horiz-adv-x="370" 
d="M90 495h92q29 0 54.5 -11t44 -30t29.5 -44.5t11 -53.5v-344l72 -153h-65l-54 151v11q-19 -16 -42.5 -25t-49.5 -9q-29 0 -54.5 10.5t-44.5 29.5t-29.5 44t-10.5 54v81q0 29 10.5 54.5t29.5 44.5t44.5 30t54.5 11q26 0 49.5 -10t42.5 -26v55q0 16 -8 31t-21 27t-29.5 19
t-33.5 7h-92v46zM182 300q-19 0 -36 -7.5t-29.5 -20.5t-19.5 -30t-7 -36v-81q0 -19 7 -36t19.5 -29.5t29.5 -19.5t36 -7t36 7t29.5 19.5t19.5 29.5t7 36v81q0 19 -7 36t-19.5 30t-29.5 20.5t-36 7.5z" />
    <glyph glyph-name="eogonek" unicode="&#x119;" horiz-adv-x="370" 
d="M305 0h-82l67 -141h-65l-51 141q-28 2 -52 13.5t-42 30.5t-28.5 43.5t-10.5 51.5v217q0 29 11 54.5t29.5 44t44 29.5t54.5 11q28 0 53.5 -11t45 -29.5t30.5 -44t11 -54.5v-242h-229q8 -29 32.5 -49t56.5 -20h125v-45zM88 160h185v196q0 19 -7.5 36t-20 29.5t-29.5 20
t-36 7.5t-36 -7.5t-29.5 -20t-19.5 -29.5t-7 -36v-196z" />
    <glyph glyph-name="hcircumflex" unicode="&#x125;" horiz-adv-x="370" 
d="M30 749l146 173v-72l-84 -101h-62zM192 849v74l143 -174h-61zM321 0h-47v357q0 19 -7.5 36t-20 29.5t-29.5 19.5t-36 7t-36 -7t-29.5 -19.5t-19.5 -29.5t-7 -36v-357h-47v703h47v-243q19 17 42.5 26t49.5 9q29 0 54.5 -10.5t44.5 -29.5t30 -44t11 -54v-357z" />
    <glyph glyph-name="iogonek" unicode="&#x12f;" horiz-adv-x="129" 
d="M32 685q0 13 9.5 22.5t20.5 9.5q14 0 23.5 -9.5t9.5 -22.5q0 -12 -9.5 -21.5t-23.5 -9.5q-11 0 -20.5 9.5t-9.5 21.5zM40 10v473h47v-471l72 -153h-64z" />
    <glyph glyph-name="uogonek" unicode="&#x173;" horiz-adv-x="371" 
d="M167 -12q-27 1 -49.5 13t-39.5 30.5t-26.5 43t-9.5 51.5v356h47v-356q0 -19 7 -36t19.5 -29.5t29.5 -20t36 -7.5t36 7.5t29.5 20t19.5 29.5t7 36v356h48v-356q0 -24 -8.5 -46t-23 -40t-34 -31t-41.5 -19l63 -131h-64z" />
    <glyph glyph-name="summation" unicode="&#x2211;" horiz-adv-x="531" 
d="M203 277l-159 436v36h433v-45h-381q38 -106 78 -213t78 -214l-156 -426h381v-45h-433v36z" />
    <glyph glyph-name="product" unicode="&#x220f;" horiz-adv-x="552" 
d="M452 -194v897h-363v-897h-45v943h453v-943h-45z" />
    <glyph glyph-name="integral" unicode="&#x222b;" horiz-adv-x="176" 
d="M40 618q0 34 27 58.5t65 25.5v-46q-20 -1 -33 -12t-13 -26v-755q0 -17 -7.5 -32t-20 -26.5t-29 -18.5t-35.5 -7v46q20 1 33 12t13 26v755z" />
    <glyph glyph-name="D" unicode="D" horiz-adv-x="355" 
d="M41 0v712h134q28 0 52.5 -10.5t42.5 -28.5t28.5 -42.5t10.5 -52.5v-444q0 -28 -10.5 -52.5t-28.5 -42.5t-42.5 -28.5t-52.5 -10.5h-134zM89 46h86q18 0 34 7t28 19t19 28t7 34v444q0 18 -7 34t-19 28t-28 19t-34 7h-86v-620z" />
    <glyph glyph-name="eth" unicode="&#xf0;" horiz-adv-x="612" 
d="M410 732l-83 -108l163 -213q31 -35 48 -79t17 -91q0 -51 -19.5 -97.5t-55.5 -83.5q-36 -36 -82.5 -54.5t-97.5 -18.5t-97.5 18.5t-83.5 54.5q-36 37 -55 83.5t-19 97.5t19 98t55 83q43 42 98 60l-31 31l84 110l-83 110l32 31l80 -104q20 25 40 53t39 51zM300 449
q-43 0 -80.5 -16.5t-66 -45t-45 -66t-16.5 -80.5t16.5 -80.5t45 -66t66 -45t80.5 -16.5t80.5 16.5t66 45t45 66t16.5 80.5t-16.5 80.5t-45 66t-66 45t-80.5 16.5zM298 586q-20 -26 -40 -53t-39 -50q39 12 81 12q20 0 38.5 -2t37.5 -8z" />
    <glyph glyph-name="A" unicode="A" 
d="M180 726q28 0 53.5 -11t45 -29.5t30.5 -44t11 -54.5v-587h-48v116h-183v-116h-48v587q0 29 11 54.5t30 44t44.5 29.5t53.5 11zM272 162v425q0 19 -7 35.5t-19.5 29t-29.5 20t-36 7.5q-38 0 -64.5 -27t-26.5 -65v-425h183z" />
    <glyph glyph-name="B" unicode="B" 
d="M320 255q0 -29 -12 -55.5t-31 -45.5q18 -11 30.5 -30.5t12.5 -41.5q0 -35 -24 -58.5t-57 -23.5h-198v712h139q29 0 54.5 -11t44.5 -30t30 -44.5t11 -53.5v-318zM180 162q19 0 36 7.5t29.5 20t19.5 29.5t7 36v318q0 19 -7 36t-19.5 29.5t-29.5 20t-36 7.5h-91v-504h91z
M272 82q0 14 -10 24t-24 10h-149v-70h149q14 0 24 10.5t10 25.5z" />
    <glyph glyph-name="C" unicode="C" 
d="M180 -14q-28 0 -53.5 11t-44.5 29.5t-30 44t-11 54.5v462q0 29 11 54.5t30 44t44.5 29.5t53.5 11q29 0 54.5 -12t44.5 -32t30 -47t11 -58h-48q0 21 -7 39.5t-19.5 32.5t-29.5 22t-36 8q-38 0 -64.5 -27t-26.5 -65v-462q0 -38 26.5 -65t64.5 -27q19 0 36 8t29.5 22
t19.5 32.5t7 39.5h48q0 -31 -11 -58t-30 -47.5t-44.5 -32t-54.5 -11.5z" />
    <glyph glyph-name="infinity" unicode="&#x221e;" horiz-adv-x="700" 
d="M641 522q0 -28 -11 -53t-30 -43.5t-44 -29.5t-53 -11h-46q-35 0 -65 17t-49 44q-19 -27 -49 -44t-65 -17h-46q-28 0 -53 11t-44 29.5t-30 43.5t-11 53t11 53t30 44t44 30t53 11h46q37 0 66 -16.5t48 -46.5q19 30 48 46.5t66 16.5h46q28 0 53 -11t44 -30t30 -44t11 -53z
M91 522q0 -38 26.5 -64t64.5 -26h48q38 0 64 26t26 64t-26 64.5t-64 26.5h-48q-38 0 -64.5 -26.5t-26.5 -64.5zM366 522q2 -36 27.5 -63t62.5 -27h48q38 0 64.5 26t26.5 64t-26.5 64.5t-64.5 26.5h-48q-37 0 -63.5 -26t-26.5 -65z" />
    <glyph glyph-name="lessequal" unicode="&#x2264;" horiz-adv-x="302" 
d="M286 79h-275v46h244l-214 128v38l214 129v-52l-156 -97l156 -94v-52h31v-46z" />
    <glyph glyph-name="greaterequal" unicode="&#x2265;" horiz-adv-x="302" 
d="M41 125v52l156 95l-156 96v52l214 -129v-38zM10 125h275v-46h-275v46z" />
    <glyph glyph-name="notequal" unicode="&#x2260;" horiz-adv-x="437" 
d="M386 321h-130l-37 -100h167v-46h-183q-11 -33 -25 -70t-26 -69h-50l52 139h-111v46h126l39 100h-165v46h180q14 37 29 76t28 75h48l-57 -151h115v-46z" />
    <glyph glyph-name="Delta" unicode="&#x394;" horiz-adv-x="652" 
d="M301 712h41l262 -712h-565zM107 46h430l-215 589z" />
    <glyph glyph-name="Delta" unicode="&#x2206;" horiz-adv-x="652" 
d="M301 712h41l262 -712h-565zM107 46h430l-215 589z" />
    <glyph glyph-name="radical" unicode="&#x221a;" horiz-adv-x="368" 
d="M88 187h-50l65 174h43l34 -207l92 549h48l-118 -703h-44l-44 261z" />
    <glyph glyph-name="Iogonek" unicode="&#x12e;" horiz-adv-x="129" 
d="M40 10v702h48v-700l73 -155h-65z" />
    <glyph glyph-name="G" unicode="G" 
d="M180 -14q-28 0 -53.5 11t-44.5 29.5t-30 44t-11 54.5v462q0 29 11 54.5t30 44t44.5 29.5t53.5 11q29 0 54.5 -12t44.5 -32t30 -47t11 -58h-48q0 21 -7 39.5t-19.5 32.5t-29.5 22t-36 8q-38 0 -64.5 -27t-26.5 -65v-462q0 -38 26.5 -65t64.5 -27q36 0 62.5 24t29.5 59
h-159v46h207v-37q0 -29 -11 -54.5t-30 -44t-44.5 -29.5t-54.5 -11z" />
    <glyph glyph-name="E" unicode="E" horiz-adv-x="342" 
d="M185 116h-96v-70h207v-46h-255v712h200v-46h-152v-504h96v-46z" />
    <glyph glyph-name="F" unicode="F" horiz-adv-x="346" 
d="M244 116h-155v-116h-48v712h259v-46h-211v-504h155v-46z" />
    <glyph glyph-name="Gdotaccent" unicode="&#x120;" 
d="M180 -14q-28 0 -53.5 11t-44.5 29.5t-30 44t-11 54.5v462q0 29 11 54.5t30 44t44.5 29.5t53.5 11q29 0 54.5 -12t44.5 -32t30 -47t11 -58h-48q0 21 -7 39.5t-19.5 32.5t-29.5 22t-36 8q-38 0 -64.5 -27t-26.5 -65v-462q0 -38 26.5 -65t64.5 -27q36 0 62.5 24t29.5 59
h-159v46h207v-37q0 -29 -11 -54.5t-30 -44t-44.5 -29.5t-54.5 -11zM150 799q0 14 9.5 23.5t21.5 9.5q13 0 22.5 -9.5t9.5 -23.5q0 -11 -9.5 -20.5t-22.5 -9.5q-12 0 -21.5 9.5t-9.5 20.5z" />
    <glyph glyph-name="Idotaccent" unicode="&#x130;" horiz-adv-x="129" 
d="M87 0h-47v712h47v-712zM32 799q0 14 9.5 23.5t21.5 9.5q13 0 22.5 -9.5t9.5 -23.5q0 -11 -9.5 -20.5t-22.5 -9.5q-12 0 -21.5 9.5t-9.5 20.5z" />
    <glyph glyph-name="Cdotaccent" unicode="&#x10a;" 
d="M180 -14q-28 0 -53.5 11t-44.5 29.5t-30 44t-11 54.5v462q0 29 11 54.5t30 44t44.5 29.5t53.5 11q29 0 54.5 -12t44.5 -32t30 -47t11 -58h-48q0 21 -7 39.5t-19.5 32.5t-29.5 22t-36 8q-38 0 -64.5 -27t-26.5 -65v-462q0 -38 26.5 -65t64.5 -27q19 0 36 8t29.5 22
t19.5 32.5t7 39.5h48q0 -31 -11 -58t-30 -47.5t-44.5 -32t-54.5 -11.5zM150 799q0 14 9.5 23.5t21.5 9.5q13 0 22.5 -9.5t9.5 -23.5q0 -11 -9.5 -20.5t-22.5 -9.5q-12 0 -21.5 9.5t-9.5 20.5z" />
    <glyph glyph-name="Edotaccent" unicode="&#x116;" horiz-adv-x="342" 
d="M185 116h-96v-70h207v-46h-255v712h200v-46h-152v-504h96v-46zM111 799q0 14 9.5 23.5t21.5 9.5q13 0 22.5 -9.5t9.5 -23.5q0 -11 -9.5 -20.5t-22.5 -9.5q-12 0 -21.5 9.5t-9.5 20.5z" />
    <glyph glyph-name="Zdotaccent" unicode="&#x17b;" horiz-adv-x="377" 
d="M311 0h-272l229 666h-207v46h273l-231 -666h208v-46zM155 799q0 14 9.5 23.5t21.5 9.5q13 0 22.5 -9.5t9.5 -23.5q0 -11 -9.5 -20.5t-22.5 -9.5q-12 0 -21.5 9.5t-9.5 20.5z" />
    <glyph glyph-name="edotaccent" unicode="&#x117;" horiz-adv-x="370" 
d="M306 0h-125q-29 0 -54.5 11t-44 30t-29.5 44t-11 54v217q0 29 11 54.5t29.5 44t44 29.5t54.5 11q28 0 53.5 -11t45 -29.5t30.5 -44t11 -54.5v-242h-229q8 -29 32.5 -49t56.5 -20h125v-45zM89 160h184v196q0 19 -7 36t-19.5 29.5t-29.5 20t-36 7.5t-36 -7.5t-29.5 -20
t-19.5 -29.5t-7 -36v-196zM152 583q0 14 9.5 23.5t21.5 9.5q13 0 22.5 -9.5t9.5 -23.5q0 -11 -9.5 -20.5t-22.5 -9.5q-12 0 -21.5 9.5t-9.5 20.5z" />
    <glyph glyph-name="gdotaccent" unicode="&#x121;" horiz-adv-x="370" 
d="M321 482v-357q0 -29 -11 -54t-30.5 -44t-45 -30t-53.5 -11h-63q-12 0 -20.5 -9t-8.5 -20q0 -13 8.5 -21.5t20.5 -8.5h63q30 0 55.5 -6.5t44 -17.5t29.5 -27t11 -34q0 -37 -37 -62.5t-103 -25.5q-69 0 -104 25.5t-35 62.5q0 30 30 54q-30 21 -30 61q0 23 11 41t31 27
q-18 19 -30 45t-12 55v232q0 29 11 54t30 44t44 29.5t54 10.5q26 0 50 -9t42 -25v21h48zM273 -158q0 9 -8.5 16t-22 12t-30.5 7.5t-35 2.5q-34 0 -61 -9.5t-27 -28.5q0 -10 7.5 -17.5t20.5 -13t29 -8t33 -2.5q18 0 34.5 2.5t30 8t21.5 13t8 17.5zM273 357q0 19 -7 35.5
t-19.5 29t-29.5 19.5t-36 7t-36 -7t-29.5 -19.5t-19.5 -29t-7 -35.5v-232q0 -19 7 -36t19.5 -29.5t29.5 -19.5t36 -7t36 7t29.5 19.5t19.5 29.5t7 36v232zM152 583q0 14 9.5 23.5t21.5 9.5q13 0 22.5 -9.5t9.5 -23.5q0 -11 -9.5 -20.5t-22.5 -9.5q-12 0 -21.5 9.5t-9.5 20.5
z" />
    <glyph glyph-name="scedilla" unicode="&#x15f;" horiz-adv-x="370" 
d="M129 -138h-64l64 138h-73v45h181q15 0 25.5 10.5t10.5 25.5q0 14 -10.5 23.5t-25.5 9.5h-56q-29 0 -54.5 11t-44 29.5t-29.5 44t-11 54.5v104q0 29 11 54t29.5 44t44 29.5t54.5 10.5q28 0 53.5 -11.5t45 -31.5t30.5 -47t11 -57h-48q0 21 -7 39t-19.5 32t-29.5 22t-36 8
t-36 -7t-29.5 -19.5t-19.5 -29.5t-7 -36v-104q0 -19 7 -36t19.5 -29.5t29.5 -20t36 -7.5h56q33 0 58 -21.5t26 -57.5q-1 -35 -26 -58t-58 -23h-57z" />
    <glyph glyph-name="ij" unicode="&#x133;" horiz-adv-x="212" 
d="M40 0v482h47v-482h-47zM32 670q0 13 9.5 23t21.5 10q13 0 22.5 -10t9.5 -23q0 -11 -9.5 -21t-22.5 -10q-12 0 -21.5 10t-9.5 21zM77 -199q18 0 31 10.5t13 24.5v646h47v-646q0 -17 -7 -31.5t-19.5 -26t-29 -18t-35.5 -6.5v47zM114 670q0 13 9.5 23t20.5 10q14 0 23.5 -10
t9.5 -23q0 -11 -9.5 -21t-23.5 -10q-11 0 -20.5 10t-9.5 21z" />
    <glyph glyph-name="zdotaccent" unicode="&#x17c;" horiz-adv-x="372" 
d="M301 0h-265l218 437h-191v45h265l-219 -437h192v-45zM153 583q0 14 9.5 23.5t21.5 9.5q13 0 22.5 -9.5t9.5 -23.5q0 -11 -9.5 -20.5t-22.5 -9.5q-12 0 -21.5 9.5t-9.5 20.5z" />
    <glyph glyph-name="minus" unicode="&#x2212;" horiz-adv-x="558" 
d="M502 328h-458v46h458v-46z" />
    <glyph glyph-name="ff" unicode="&#xfb00;" horiz-adv-x="372" 
d="M189 114h-100v-114h-47v589q0 29 11 54t29.5 43.5t43.5 29t53 10.5v-46q-38 0 -64 -26.5t-26 -64.5v-429h100v-46zM336 114h-100v-114h-47v589q0 29 11 54t29.5 43.5t43.5 29t53 10.5v-46q-38 0 -64 -26.5t-26 -64.5v-429h100v-46z" />
    <glyph glyph-name="Ucircumflex" unicode="&#xdb;" 
d="M180 -14q-28 0 -53.5 11t-44.5 29.5t-30 44t-11 54.5v587h48v-587q0 -38 26.5 -65t64.5 -27q19 0 36 7.5t29.5 20t19.5 29t7 35.5v587h48v-587q0 -29 -11 -54.5t-30.5 -44t-45 -29.5t-53.5 -11zM31 759l131 157h45l129 -157h-61l-91 111l-91 -111h-62z" />
    <glyph glyph-name="Ocircumflex" unicode="&#xd4;" 
d="M180 -14q-28 0 -53.5 11t-44.5 30t-30 44.5t-11 53.5v462q0 28 11 53.5t30 44.5t44.5 30t53.5 11t53.5 -11t45 -30t30.5 -44.5t11 -53.5v-462q0 -28 -11 -53.5t-30.5 -44.5t-45 -30t-53.5 -11zM180 679q-19 0 -35.5 -7t-29 -19.5t-19.5 -29.5t-7 -36v-462q0 -19 7 -36
t19.5 -29.5t29 -19.5t35.5 -7t36 7t29.5 19.5t19.5 29.5t7 36v462q0 19 -7 36t-19.5 29.5t-29.5 19.5t-36 7zM31 759l131 157h45l129 -157h-61l-91 111l-91 -111h-62z" />
    <glyph glyph-name="Scircumflex" unicode="&#x15c;" horiz-adv-x="360" 
d="M55 0v46h177q14 0 24.5 10t11.5 25q-1 14 -11.5 24.5t-24.5 10.5h-54q-28 0 -53 10.5t-43.5 28.5t-29.5 42.5t-11 53.5v338q0 28 10.5 53t29.5 44t43.5 29.5t53.5 10.5q28 0 53 -11.5t43.5 -31.5t29 -46.5t10.5 -56.5h-46q0 21 -7 39t-19.5 31.5t-29 21t-34.5 7.5
q-38 0 -64 -26t-26 -64v-338q0 -37 26 -63t64 -26h54q33 0 57.5 -23.5t24.5 -57.5q0 -33 -24.5 -57t-57.5 -24h-177zM28 759l131 157h45l129 -157h-61l-91 111l-91 -111h-62z" />
    <glyph glyph-name="Wcircumflex" unicode="&#x174;" horiz-adv-x="604" 
d="M436 0h-45l-93 560l-94 -560h-44l-119 712h49l92 -558l94 558h44l94 -557l92 557h49zM149 759l131 157h45l129 -157h-61l-91 111l-91 -111h-62z" />
    <glyph glyph-name="Ycircumflex" unicode="&#x176;" 
d="M204 122v-122h-47v122l-118 590h48l93 -464q11 55 23.5 114t24.5 118.5t23.5 118.5t22.5 113h48zM31 759l131 157h45l129 -157h-61l-91 111l-91 -111h-62z" />
    <glyph glyph-name="Acircumflex" unicode="&#xc2;" 
d="M180 726q28 0 53.5 -11t45 -29.5t30.5 -44t11 -54.5v-587h-48v116h-183v-116h-48v587q0 29 11 54.5t30 44t44.5 29.5t53.5 11zM272 162v425q0 19 -7 35.5t-19.5 29t-29.5 20t-36 7.5q-38 0 -64.5 -27t-26.5 -65v-425h183zM31 759l131 157h45l129 -157h-61l-91 111
l-91 -111h-62z" />
    <glyph glyph-name="Ecircumflex" unicode="&#xca;" horiz-adv-x="342" 
d="M185 116h-96v-70h207v-46h-255v712h200v-46h-152v-504h96v-46zM19 759l131 157h45l129 -157h-61l-91 111l-91 -111h-62z" />
    <glyph glyph-name="Gcircumflex" unicode="&#x11c;" 
d="M180 -14q-28 0 -53.5 11t-44.5 29.5t-30 44t-11 54.5v462q0 29 11 54.5t30 44t44.5 29.5t53.5 11q29 0 54.5 -12t44.5 -32t30 -47t11 -58h-48q0 21 -7 39.5t-19.5 32.5t-29.5 22t-36 8q-38 0 -64.5 -27t-26.5 -65v-462q0 -38 26.5 -65t64.5 -27q36 0 62.5 24t29.5 59
h-159v46h207v-37q0 -29 -11 -54.5t-30 -44t-44.5 -29.5t-54.5 -11zM31 759l131 157h45l129 -157h-61l-91 111l-91 -111h-62z" />
    <glyph glyph-name="Hcircumflex" unicode="&#x124;" 
d="M320 0h-48v116h-183v-116h-48v712h48v-550h183v550h48v-712zM31 759l131 157h45l129 -157h-61l-91 111l-91 -111h-62z" />
    <glyph glyph-name="Icircumflex" unicode="&#xce;" horiz-adv-x="129" 
d="M87 0h-47v712h47v-712zM-88 759l131 157h45l129 -157h-61l-91 111l-91 -111h-62z" />
    <glyph glyph-name="Jcircumflex" unicode="&#x134;" 
d="M320 712v-587q0 -29 -11 -54.5t-30.5 -44t-45 -29.5t-53.5 -11t-53.5 11.5t-44.5 32t-30 47.5t-11 58h48q0 -21 7 -39.5t19.5 -32.5t29 -22t35.5 -8t36 7.5t29.5 20t19.5 29t7 35.5v587h48zM143 759l131 157h45l129 -157h-61l-91 111l-91 -111h-62z" />
    <glyph glyph-name="Ccircumflex" unicode="&#x108;" 
d="M180 -14q-28 0 -53.5 11t-44.5 29.5t-30 44t-11 54.5v462q0 29 11 54.5t30 44t44.5 29.5t53.5 11q29 0 54.5 -12t44.5 -32t30 -47t11 -58h-48q0 21 -7 39.5t-19.5 32.5t-29.5 22t-36 8q-38 0 -64.5 -27t-26.5 -65v-462q0 -38 26.5 -65t64.5 -27q19 0 36 8t29.5 22
t19.5 32.5t7 39.5h48q0 -31 -11 -58t-30 -47.5t-44.5 -32t-54.5 -11.5zM31 758l131 157h45l129 -157h-61l-91 111l-91 -111h-62z" />
    </font>
</defs>
</svg>
